<svg xmlns="http://www.w3.org/2000/svg" width="127.501" height="87.576" xmlns:v="https://vecta.io/nano"><linearGradient id="A" gradientUnits="userSpaceOnUse" x1="63.617" y1="89.125" x2="63.617" y2="27.875"><stop offset="0" stop-color="#fff35a"/><stop offset="1" stop-color="#f3ff77"/></linearGradient><path d="M121.127 14.995l-.898-.816.011-.038-.021.027-.479-.435-.803 2.051c-3.555 4.568-13.338 17.731-16.032 27.488-1.601-5.03-4.18-17.445-.827-30.422 0 0-.125-3.154-3.784-1.388 0 0-10.618 33.435-26.728 38.95-9.479 3.245-13.686.893-13.686.893-16.415-5.265-28.939-39.843-28.939-39.843-3.659-1.767-3.784 1.388-3.784 1.388 3.129 12.111 1.091 23.731-.496 29.318C20.845 30.267 7.676 14.165 7.656 14.142l-.161-.409-1.388 1.262L15.119 48.3c.686 2.775 2.974 15.139.702 21.068s.757 8.831 12.237 12.489c9.813 3.127 29.923 3.673 35.559 3.766 5.636-.092 25.745-.638 35.559-3.766 11.48-3.659 14.509-6.56 12.237-12.489s.017-18.293.702-21.068 9.012-33.305 9.012-33.305z" fill="url(#A)"/><path d="M34 22.38v60.818c10 1.952 25.281 2.347 29.99 2.424 3.193-.051 11.01-.249 19.01-.98V41.888c-4 3.961-7.184 7.132-11.248 8.524-3.868 1.324-6.844 1.717-9.011 1.717-3.141 0-4.581-.824-4.581-.824C47.801 47.982 39 32.993 34 22.38m84-4.885c-5 5.579-12.309 17.035-14.723 25.777-.4-1.259-1.277-2.981-1.277-5.058v42.824c9-3.295 11.699-6.189 9.6-11.669-2.271-5.93.017-18.293.702-21.068.521-2.108 5.448-20.224 7.788-28.814-.792.034-2.09.106-2.09.221v-2.213" opacity=".2" fill="#fcffc2"/><g fill="#fff35a"><circle cx="7.695" cy="14.765" r="4.901"/><circle cx="25.695" cy="8.765" r="4.901"/></g><g fill="#ffd85c"><circle cx="40.798" cy="12.663" r="4.004"/><circle cx="87.798" cy="12.663" r="4.004"/></g><g fill="#fff35a"><circle cx="100.695" cy="9.765" r="4.901"/><circle cx="119.695" cy="15.765" r="4.901"/></g><path d="M37.745 30.27c5.145 9.048 12.18 18.483 20.135 21.035 0 0 4.207 2.353 13.686-.893 7.468-2.557 13.753-11.113 18.35-19.558-2.324-3.901-1.576-16.278-1.576-16.278l-2.694.218s-.292 3.933-4.588 11.651-5.607 14.056-18.06 15.002S43.189 16.18 42.753 15.67s-3.933-4.442-3.277.655c.411 3.2-.785 9.613-1.731 13.945z" fill="#ffd85c"/><path d="M6.688 10.855c-1.84-.145-4.864 3.31-2.876 4.915 3.02 2.438 5.536-4.482 2.876-4.915zM25.827 5.2c-1.054-2.277-4.88 3.096-3.438 5.389 2.11 3.351 4.485-4.313 3.438-5.389-.224-.485.281.289 0 0z" fill="#fff69f"/><path d="M41.341 10.047c-.72-2.623-5.534 2.613-2.837 4.007.991.512 3.015-3.364 2.837-4.007-.135-.491.154.56 0 0zm45.204-.504c-.775.756-1.867 1.58-2 2.759-.101.9.722 2.404 1.789 1.405 1.104-1.032 2.152-6.055.211-4.164-1.129 1.101.838-.816 0 0z" fill="#fcde8b"/><path d="M101.038 6.636c-1.232-1.9-3.386.221-4.021 1.702-1.798 4.205 3.806 1.583 4.021-1.702zm19.208 5.506c-1.131-2.102-4.301 1.88-4.021 3.436.342 1.9 5.124-1.913 4.021-3.436-.192-.357.107.147 0 0z" fill="#fff69f"/><linearGradient id="B" gradientUnits="userSpaceOnUse" x1="12.521" y1="61.562" x2="26.396" y2="65.562"><stop offset="0" stop-color="#f94351"/><stop offset="1" stop-color="#d4194d"/></linearGradient><path d="M24.273 63.63c.002 1.481-.249 2.897-.678 4.334-.448 1.405-1.075 2.831-2.295 3.599-1.18.751-2.947.595-4.533-.827-1.566-1.373-2.951-4.011-2.914-7.106-.037-3.095 1.348-5.733 2.914-7.106 1.586-1.421 3.354-1.577 4.533-.826 1.22.767 1.847 2.193 2.295 3.598.429 1.436.68 2.852.678 4.334z" fill="url(#B)"/><linearGradient id="C" gradientUnits="userSpaceOnUse" x1="116.306" y1="62.723" x2="101.056" y2="64.473"><stop offset="0" stop-color="#f94351"/><stop offset="1" stop-color="#d4194d"/></linearGradient><path d="M103.852 63.63c-.002 1.481.249 2.897.678 4.334.448 1.405 1.075 2.831 2.295 3.599 1.18.751 2.947.595 4.533-.827 1.566-1.373 2.951-4.011 2.914-7.106.037-3.095-1.348-5.733-2.914-7.106-1.586-1.421-3.354-1.577-4.533-.826-1.22.767-1.847 2.193-2.295 3.598-.429 1.436-.68 2.852-.678 4.334z" fill="url(#C)"/><linearGradient id="D" gradientUnits="userSpaceOnUse" x1="54.364" y1="59.278" x2="73.865" y2="78.029"><stop offset="0" stop-color="#f94351"/><stop offset="1" stop-color="#d4194d"/></linearGradient><ellipse cx="63.617" cy="68.175" rx="10.5" ry="12.45" fill="url(#D)"/><path d="M19.445 55.724c-.892 0-1.322.591-1.962 1.139-.83.71-1.473 1.443-2.001 2.406-.553 1.007-2.209 5.424.572 4.828.905-.194 1.28-1.141 1.504-1.934.282-1.003.633-1.951 1.3-2.769.521-.637 1.221-1.155 1.59-1.907.36-.732-.09-1.763-1.003-1.763m89.235 0c-.769 0-1.329.864-1.089 1.557.261.754.946 1.3 1.468 1.872.709.775 1.164 1.732 1.435 2.741.232.866.565 1.986 1.577 2.203 2.632.564 1.259-3.497.733-4.524-.5-.979-1.102-1.792-1.932-2.512-.686-.596-1.229-1.337-2.192-1.337m-45.156.818c-.754 0-1.7.542-2.363.867a12.94 12.94 0 0 0-2.259 1.406c-1.293 1.006-2.376 2.272-3.161 3.711-.817 1.5-1.302 3.166-1.478 4.862-.137 1.315.493 4.29 2.464 2.997 1.431-.939 1.904-2.665 2.373-4.209.57-1.876 1.344-3.462 3.084-4.512 1.274-.769 3.471-.975 3.75-2.72.266-1.655-.951-2.402-2.41-2.402" opacity=".098" fill="#f4a6bb"/><path d="M22.756 62.102c-1.226 0-.999 1.417-1.077 2.25-.094 1-.271 2.031-.71 2.942-.396.822-1.069 1.513-2.033 1.537-.863.021-1.302 1.143-.682 1.751.633.622 2.014.076 2.638-.302.881-.532 1.494-1.401 1.909-2.326.449-1.002 2.005-5.852-.045-5.852m82.613 0c-2.001 0-.551 4.642-.136 5.642.39.94.968 1.839 1.82 2.421.631.431 1.955 1.002 2.689.52.703-.46.461-1.664-.353-1.832-.993-.205-1.624-.417-2.141-1.376-.48-.889-.675-1.923-.783-2.917-.091-.86.182-2.458-1.096-2.458m-37.862 6.504c-2.088 0-3.241 1.932-3.87 3.675-.264.732-.49 1.639-.174 2.39.362.861 1.467 1.252 2.325.994 2.093-.628 5.459-7.059 1.719-7.059m4.898-3.022c-1.004 0-.975.92-1 1.664-.034.998-.166 1.991-.403 2.96-.456 1.861-1.256 4.033-2.642 5.409-1.211 1.202-2.884 1.656-4.54 1.798-.64.055-1.668-.144-2.222.216-.475.308-.561 1.025-.241 1.474.37.521 1.123.379 1.669.36.97-.035 1.942-.127 2.89-.346 1.809-.417 3.434-1.35 4.528-2.874 1.231-1.713 2.099-3.67 2.56-5.729.23-1.031 1.253-4.932-.599-4.932" opacity=".298" fill="#f44d71"/></svg>