<svg xmlns="http://www.w3.org/2000/svg" width="213.468" height="109.25" xmlns:v="https://vecta.io/nano"><path d="M19.417 108.204s51.396-17.106 41.234-46.819-64.371-7.267-41.234 46.819zm190.898-11.415s1.668-38.266-20.523-39.05-21.041 40.686 20.523 39.05zm-91.929-84.196s4.465 46.737 31.537 43.925 18.642-52.959-31.537-43.925z" fill="#b5f995"/><path d="M99.604 34.981c.523-2.502-5.465-5.823-13.551-6.677-1.842-.171-3.609-.272-5.256-.319 1.516-.645 3.123-1.383 4.775-2.216 7.221-3.742 11.586-9.019 10.184-11.157s-7.982-.255-14.303 4.86c-1.424 1.181-2.744 2.359-3.941 3.489a84.76 84.76 0 0 0 1.813-4.942c2.457-7.752 1.813-14.569-.691-15.092s-5.824 5.466-6.676 13.552c-.172 1.842-.273 3.61-.32 5.255a84.78 84.78 0 0 0-2.215-4.777c-3.744-7.219-9.02-11.583-11.16-10.182s-.252 7.981 4.861 14.302a81.92 81.92 0 0 0 3.49 3.943c-1.525-.615-3.186-1.23-4.943-1.812-7.75-2.457-14.568-1.813-15.09.69s5.465 5.823 13.551 6.677c1.842.171 3.609.271 5.254.319a83.41 83.41 0 0 0-4.775 2.215c-7.219 3.743-11.584 9.02-10.184 11.157 1.398 2.142 7.982.256 14.305-4.859 1.422-1.183 2.744-2.36 3.941-3.489a84.49 84.49 0 0 0-1.813 4.942c-2.457 7.751-1.813 14.568.691 15.091s5.824-5.464 6.676-13.551c.172-1.843.273-3.609.32-5.254a84.02 84.02 0 0 0 2.213 4.775c3.744 7.218 9.021 11.584 11.16 10.183s.254-7.981-4.861-14.303c-1.18-1.423-2.359-2.746-3.488-3.941 1.525.615 3.188 1.229 4.941 1.811 7.755 2.459 14.571 1.814 15.092-.69zM34.595 81.78c.328-1.562-3.412-3.635-8.459-4.168l-3.279-.199 2.98-1.383c4.508-2.336 7.23-5.629 6.355-6.964s-4.98-.159-8.928 3.033l-2.459 2.178 1.131-3.085c1.533-4.838 1.131-9.094-.432-9.42s-3.635 3.412-4.166 8.459l-.201 3.28-1.381-2.982c-2.338-4.506-5.631-7.229-6.967-6.354s-.158 4.981 3.035 8.927l2.178 2.461-3.086-1.131c-4.838-1.533-9.094-1.131-9.418.432s3.41 3.635 8.457 4.167l3.281.199-2.98 1.383c-4.506 2.336-7.23 5.63-6.357 6.964s4.982.16 8.928-3.033l2.461-2.178-1.131 3.085c-1.533 4.838-1.131 9.093.432 9.419s3.635-3.41 4.166-8.458l.201-3.279 1.381 2.981c2.336 4.505 5.631 7.23 6.965 6.355s.16-4.982-3.033-8.928l-2.178-2.46 3.084 1.13c4.84 1.534 9.094 1.132 9.42-.431zm165.781-24.734c1.928-2.955-4.107-10.229-14.078-15.381-2.281-1.145-4.504-2.161-6.596-3.047a113.69 113.69 0 0 0 7.252-.453c11.162-1.191 19.418-5.787 18.689-9.24s-10.137-4.331-20.83-.923a113.01 113.01 0 0 0-6.816 2.51c1.557-1.653 3.18-3.481 4.809-5.446 7.047-8.735 9.637-17.825 6.68-19.752s-10.229 4.107-15.381 14.076a112.8 112.8 0 0 0-3.047 6.597 115.42 115.42 0 0 0-.453-7.254C169.414 7.575 164.818-.683 161.363.045s-4.328 10.137-.92 20.827c.805 2.427 1.658 4.718 2.51 6.821a113.37 113.37 0 0 0-5.449-4.809c-8.732-7.046-17.824-9.638-19.748-6.68-1.932 2.955 4.105 10.229 14.074 15.381 2.281 1.143 4.504 2.159 6.596 3.045a114.23 114.23 0 0 0-7.25.453c-11.16 1.193-19.418 5.789-18.691 9.239s10.137 4.332 20.83.925c2.424-.807 4.713-1.658 6.818-2.51-1.557 1.654-3.18 3.479-4.809 5.447-7.045 8.733-9.637 17.823-6.68 19.75s10.229-4.105 15.381-14.076a114.7 114.7 0 0 0 3.047-6.594 114.96 114.96 0 0 0 .449 7.249c1.193 11.158 5.791 19.419 9.242 18.689 3.455-.725 4.33-10.135.924-20.828-.803-2.421-1.656-4.714-2.51-6.817 1.654 1.556 3.482 3.179 5.447 4.807 8.736 7.049 17.824 9.639 19.752 6.682z" fill="#fbff66"/><g fill="#fbf"><path d="M23.685 18.047s-.379 30.779 26.219 34.832c-.001 0 .505-31.412-26.219-34.832zm32.41 37.003S41.04 81.899 15.978 72.114c0 0 15.261-27.46 40.117-17.064z"/><path d="M72.927 83.875s3.729-30.556-22.271-37.479c-.001 0-3.923 31.171 22.271 37.479z"/><path d="M48.618 46.609s17.887-25.051 41.736-12.598c0 .001-18.158 25.637-41.736 12.598z"/></g><g fill="#faaefc"><path d="M7.78 40.973s12.328 30.773 46.023 12.789c.001 0-16.95-29.907-46.023-12.789z"/><path d="M45.003 58.815S35.991 25.918 47.61 9.113c0 0 20.602 9.569 9.158 47.801l-11.765 1.901z"/><path d="M91.28 56.293s-16.439-28.787-47.344-6.345c.001 0 20.899 27.295 47.344 6.345z"/><path d="M57.448 43.212s5.377 33.684-8 49.124c0 0-19.439-11.754-3.902-48.513l11.902-.611z"/></g><circle cx="50.145" cy="51.625" r="10.552" fill="#ffd357"/><g fill="#fbf"><path d="M164.413 51.104s10.201 16.187 25.447 9.313c0 .001-10.349-16.557-25.447-9.313zm29.41 8.356s1.217 19.093-15.164 22.456c0 0-1.316-19.482 15.164-22.456z"/><path d="M212.345 68.811s-8.379-17.2-24.283-12.027c0-.001 8.486 17.586 24.283 12.027z"/><path d="M187.071 57.582s.869-19.112 17.518-20.674c0 0-.811 19.511-17.518 20.674z"/></g><g fill="#faaefc"><path d="M163.86 68.438s16.83 11.89 28.334-8.877c0 .001-18.949-9.874-28.334 8.877z"/><path d="M189.31 65.172s-15.816-14.119-15.432-26.812c0 0 13.98-1.968 20.926 21.845l-5.494 4.967z"/><path d="M212.601 48.221s-18.303-9.465-26.844 12.686c0-.001 20.125 7.178 26.844-12.686z"/><path d="M190.53 52.826s14.186 15.757 12.424 28.332c0 0-14.113.435-18.426-23.992l6.002-4.34z"/></g><circle cx="189.563" cy="59.683" r="6.558" fill="#ffd357"/></svg>