<svg xmlns="http://www.w3.org/2000/svg" width="232.902" height="232.902" xmlns:v="https://vecta.io/nano"><path d="M214.516 73.837c9.635-6.786 15.936-17.989 15.936-30.67 0-20.711-16.79-37.5-37.5-37.5-16.16 0-29.932 10.222-35.203 24.553-12.533-4.548-26.478-7.226-41.442-7.001-14.519-.218-28.07 2.305-40.311 6.608-4.49-15.68-18.922-27.16-36.044-27.16-20.711 0-37.5 16.789-37.5 37.5 0 13.21 6.836 24.816 17.158 31.496C9.98 85.26 5.914 98.515 5.377 107.33a5.35 5.35 0 0 0-.558 1.676c-4.693 31.139 3.553 64.75 24.539 88.657 8.246 9.394 19.322 14.712 30.978 18.594 16.128 5.372 32.798 7.817 49.222 11.976a8.61 8.61 0 0 0 1.005.188c1.612 2.03 4.217 3.215 7.482 2.313 29.185-8.071 60.737-10.601 84.533-31.304 23.021-20.029 24.707-54.694 26.473-82.929.144-2.301-.603-4.044-1.824-5.245.609-8.059-2.687-22.393-12.711-37.419zm-22.544 114.985c-19.926 18.146-49.949 20.205-75.126 26.703-.828-.787-1.915-1.407-3.301-1.758-15.065-3.813-30.342-6.177-45.238-10.713-9.897-3.014-19.149-6.702-26.583-14.121-17.452-17.417-25.186-45.878-23.083-70.425 5.183-1.479 11.901-4.388 20.358-7.506 18.557-7.111 45.697-25.289 77.307-25.004 31.61-.286 58.75 17.893 77.308 25.004 8.434 3.109 15.138 6.01 20.314 7.494-1.485 24.288-2.869 52.943-21.956 70.326z" fill="#70c45d"/><g fill="#fff"><circle cx="39.951" cy="40.167" r="31.782"/><circle cx="192.951" cy="43.167" r="31.782"/></g><path d="M60.734 23.445l-21.82 19.956 5.754-29.49a26.85 26.85 0 0 0-4.717-.424c-14.735 0-26.68 11.945-26.68 26.68s11.944 26.68 26.68 26.68 26.68-11.945 26.68-26.68c0-6.332-2.211-12.146-5.897-16.722zm111.434 3l21.82 19.956-5.754-29.49a26.85 26.85 0 0 1 4.717-.424c14.735 0 26.68 11.945 26.68 26.68s-11.944 26.68-26.68 26.68-26.68-11.945-26.68-26.68c0-6.332 2.211-12.146 5.897-16.722z"/></svg>