<svg xmlns="http://www.w3.org/2000/svg" width="125" height="108.5" xmlns:v="https://vecta.io/nano"><path d="M61.473 106.767c25.779 0 48.369-10.292 60.983-25.727.438-2.518.671-5.091.671-7.713 0-28.71-27.276-51.985-60.923-51.985S1.28 44.617 1.28 73.327c0 3.397.394 6.715 1.124 9.931 12.909 14.195 34.545 23.509 59.069 23.509z" fill="#84bfef"/><path d="M105.621 36.871c-9.269-8.037-21.579-13.503-35.339-15.06-3.487 2.154-6.902 5.333-9.987 9.954-.001 0 16.89-6.441 45.326 5.106z" fill="#f93d5d"/><path d="M59.411 31.589c23.321 12.889 27 60.982 27.532 71.626 8.354-2.404 15.949-5.951 22.465-10.393l1.118-3.199c-.04-49.208-51.115-58.034-51.115-58.034z" fill="#f7ca69"/><path d="M9.179 89.591c6.615 5.344 14.638 9.67 23.635 12.645.702-12.333 4.813-58.119 27.48-70.646 0-.001-51.052 8.822-51.115 58.001z" fill="#71f76d"/><path d="M59.122 31.765c-2.822-4.225-5.917-7.247-9.092-9.382-10.228 1.77-19.517 5.732-27.185 11.277 22.928-6.972 36.277-1.895 36.277-1.895z" fill="#f7ca69"/><g fill="#f93d5d"><path d="M29.035 11.565c9.946-1.327 19.807-3.213 29.652-4.94L35.364 2.618c-2.792-.463-6.321-1.497-9.207-.995-8.184 1.418-5.26 11.489 2.878 9.942 6.34-.845-.241.046 0 0zm62.834 0c-9.947-1.327-19.806-3.213-29.653-4.94L85.54 2.618c2.792-.463 6.321-1.497 9.207-.995 8.184 1.418 5.26 11.489-2.878 9.942-6.34-.845.241.046 0 0z"/><path d="M62.039 33.111c.023-.284-.039-.582-.039-.903V6.5c0-5-4-5-4 0v25.708c0 .418.204.795.243 1.15.927.243 2.347.307 3.796-.247z"/></g></svg>