<svg xmlns="http://www.w3.org/2000/svg" xmlns:xlink="http://www.w3.org/1999/xlink" width="129.75" height="116.853" xmlns:v="https://vecta.io/nano"><path d="M31.787 59.897S37.198-1.942 44.928.634 82.843 42.716 85.4 51.693s-37.895 19.541-53.613 8.204z" fill="#9b6734"/><g fill="none" stroke="#c98e59" stroke-miterlimit="10"><path d="M43.761 16.925l-6.379 30.662m11.79-35.559L43.761 41.66"/><path d="M40.301 22.335l11.705 2.319m-12.883 5.154l12.883 2.448"/></g><path d="M128.48 98.661c-.41-1.917-1.689-3.361-3.293-4.444.142-1.828-.86-3.558-2.44-4.727l-3.804-2.681-.092-.068-.971-.844c-.758-.69-1.421-1.476-2.056-2.277-.777-.984-1.965-1.426-3.188-1.448-.173-.826-.402-1.676-.725-2.565-6.04-16.697-27.594-35.441-48.638-35.188-21.045-.253-42.599 18.491-48.639 35.188-.674 1.859-.998 3.57-1.028 5.156-.593.091-1.172.294-1.7.637-3.543 2.302-7.3 6.063-9.479 9.671-1.952 3.23-.591 7.189 2.449 9.126 2.506 1.597 5.732.978 8.511.929.135-.002.262-.016.39-.026 3.529 3.009 8.58 2.698 13.068 2.243 5.245-.534 10.667-1.996 15.976-1.756.442.233.893.462 1.365.68 2.913 1.348 6.008 1.931 9.153 2.158 3.348 1.359 6.63 2.721 10.485 3.056 7.002.607 13.827-3.817 20.722-4.495 6.243-.613 13.078-.853 19.331-.271 6.496.603 14.966 3.542 21.192.314 3.274-1.697 4.141-4.953 3.411-8.368z" fill="#fff39c"/><path d="M65.484 98.149a3.25 3.25 0 0 0-.449-.371c-1.85-2.222-5.414-3.605-7.898-4.316-4.278-1.223-7.12-3.375-9.309-7.224-1.651-2.904-2.393-6.476-4.677-8.987-8.126-8.938-23.859-4.563-30.286 4.219-1.907 2.606 2.435 5.097 4.318 2.523 2.104-2.876 5.3-4.926 8.721-5.908a2.57 2.57 0 0 0 .663 1.359c2.884 3.129-6.206 13.203-7.048 16.267-1.974 7.178 8.11 7.676 12.501 7.875 4.103.187 7.74 1.911 11.644 3.017 2.85.807 5.914.709 8.851.887 4.282.26 10.6.572 12.974-3.846.643-1.194.844-2.274.73-3.249.16-.74-.022-1.533-.735-2.246zm59.868-7.076c-1.852-3.48-5.653-6.35-9.082-8.13-4.591-2.385-7.607.838-11.614 2.476-3.862 1.579-8.33.744-11.646 3.78-1.989 1.821-3.203 3.859-4.472 6.213-2.027 3.758-5.223 4.884-9.319 5.038-3.214.121-3.226 5.122 0 5 2.879-.108 5.217-.644 7.207-1.615.31.15.661.248 1.049.267 6.472.314 13.09-.005 19.481 1.182 3.943.732 7.892 1.428 11.918 1.288 2.973-.104 6.637-1.098 8.34-3.771 2.583-4.056.124-7.993-1.862-11.728z" fill="#f7e37c"/><path d="M128.984 99.093c-.175-.819-.266-1.548-.714-2.204-2.561-.085-5.271 1.521-5.271 4.808v.007c-1 .062-1.264.012-1.787.002-1.879-.035-3.873-.47-5.725-.746-2.479-.371-4.899-.389-7.407-.34-1.296.026-3.047.216-4.377-.197.056-.959.031-1.917-.045-2.848-.276-3.386-4.187-6.742-7.531-4.317-3.02 2.189-4.709 5.505-4.02 8.72l-.203.052c-.608.131-1.024.144-1.293.116-.223-1.071-.159-2.258-.183-3.3-.121-5.571.342-11.014-.949-16.501-1.547-6.577-13.3-17.43-16.904-6.245-1.932 5.992 1.887 14.679 3.678 20.332.697 2.198 2.072 5.021 1.043 7.352-.768 1.736-9.446.363-11.119.387-1.284.018-2.306.436-3.078 1.083-3.493.5-7.021.867-10.515.145-3.673-.76-6.991-3.594-10.622-4.742-.668-.211-1.291-.279-1.869-.243-2.382-.409-4.793-.349-7.395-.097-2.267.22-4.531.354-6.806.47-.537.053-1.061.02-1.573-.082l-.038-.294c-.229-1.886-1.206-3.32-2.491-4.142 2.366-4.989 6.39-9.729 6.872-15.184.344-3.88-4.471-6.097-7.523-4.317-3.128 1.822-5.663 4.203-7.84 6.946a13.93 13.93 0 0 0-.102 1.372 4.31 4.31 0 0 0-1.714.642c-3.571 2.32-7.358 6.111-9.555 9.748-1.968 3.256-.595 7.246 2.469 9.198 2.526 1.609 5.778.985 8.579.936.136-.002.264-.016.393-.026 3.558 3.033 8.648 2.72 13.172 2.261 3.079-.313 6.218-.938 9.359-1.362.286 1.654 1.353 3.169 3.403 3.817 4.234 1.34 7.703 4.139 12.131 5.055 5.218 1.08 10.619.099 15.801-.675 2.251-.336 3.361-1.761 3.582-3.419 4.646-1.19 9.249-3.32 13.884-3.775 6.293-.618 13.183-.859 19.485-.274 6.548.607 15.085 3.57 21.36.317 3.3-1.713 4.174-4.994 3.438-8.436z" fill="#44240a"/><path d="M83.766 54.919l-3.101 3.922c-1.24 1.569.328 2.81 1.569 1.24l3.101-3.922c1.24-1.569-.328-2.809-1.569-1.24z" fill="#69d0f9"/><path d="M58.455 83.605l-3.47-3.6c-1.389-1.439-2.829-.052-1.44 1.389l3.47 3.6c1.388 1.44 2.828.053 1.44-1.389zm-5-25l-3.47-3.6c-1.389-1.439-2.829-.052-1.44 1.389l3.47 3.6c1.388 1.44 2.828.053 1.44-1.389z" fill="#efef3c"/><use xlink:href="#B" fill="#ff6c96"/><use xlink:href="#B" x="79" y="13" fill="#69d0f9"/><use xlink:href="#B" x="42" y="18" fill="#ff6c96"/><use xlink:href="#C" fill="#da66f2"/><use xlink:href="#C" x="-53" y="21" fill="#69d0f9"/><path d="M11.518 87.872c-1.138 2.042-3.078 3.22-4.714 4.816-1.938 1.893-2.7 4.406-2.704 7.061-.005 3.225 4.995 3.224 5 0 .004-2.198.893-3.308 2.516-4.67 1.655-1.389 3.154-2.77 4.221-4.684 1.569-2.819-2.75-5.339-4.319-2.523zm76.513-1.088c-.932-5.032-4.084-12.165-9.824-12.787-3.203-.348-3.17 4.656 0 5 1.37.148 2.521 2.626 3.066 3.636.919 1.696 1.585 3.585 1.936 5.481.587 3.167 5.405 1.822 4.822-1.33zm12.161 8.616c-1.244-.558-2.677-.372-3.421.896-.623 1.064-.35 2.809.851 3.391.084 1.313 1.139 2.393 2.487 2.393 1.34 0 2.53-1.137 2.5-2.5-.037-1.673-.806-3.459-2.417-4.18z" fill="#59402d"/><defs ><path id="B" d="M30.795 79.907l3.74-3.317c1.496-1.328.169-2.824-1.328-1.497l-3.74 3.317c-1.496 1.328-.17 2.824 1.328 1.497z"/><path id="C" d="M90.279 75.178l1.368-4.809c.547-1.924-1.376-2.472-1.925-.547l-1.368 4.808c-.546 1.925 1.376 2.473 1.925.548z"/></defs></svg>