<svg xmlns="http://www.w3.org/2000/svg" width="125" height="101.75" xmlns:v="https://vecta.io/nano"><g fill="#070711"><path d="M22.576 58.67S-8.205 66.639 3.67 87.107s50.937 10.469 50.937 10.469 23.125-12.813 24.687-14.375S19.92 86.795 22.576 58.67z"/><path d="M18.238 10.858s-2.543 1.25-2.12 3.542 8.055 48.958 5.724 69.374c0 0 32.008 14.792 84.791-2.5 0 0-5.723-57.708 0-69.582 0 0 2.12-2.917-5.935-5.625 0 0-38.368-14.167-82.46 4.791z"/></g><path d="M104.665 54.592c-46.925 12.96-75.985 5.175-83.169 2.749.793 9.981 1.121 19.655.347 26.433 0 0 32.008 14.792 84.791-2.5-.001 0-1.218-12.284-1.969-26.682z" fill="#16202b"/><path d="M44.294 90.232s13.093-.865 40.905-15.084 33.324-13.155 35.813-13.509c2.076-.296 6.719 8.412-1.094 14.206S56.81 99.59 41.938 99.63s-2.175-9.866 2.356-9.398z" fill="#070711"/><path d="M121.119 64.845c-14.756 2.688-28.61 9.149-41.464 16.683-6.692 3.919-13.267 7.779-20.645 10.291-7.435 2.531-15.245 4.013-23.103 4.225-5.191.14-10.445-.203-15.544-1.218-4.664-.929-9.716-2.633-13.512-5.585-4.051-3.15-5.332-8.01-5.042-12.961.134-2.287.554-4.468 1.762-6.45.452-.741.992-1.435 1.63-2.024.137-.125 1.748-1.305 1.853-1.113-.191-.345-2.283 1.64-2.476 1.877-1.104 1.358-1.835 3.01-2.185 4.719-.644 3.141-.473 6.803.627 9.83 2.416 6.649 10.474 9.386 16.833 10.585 15.243 2.875 31.956.076 45.752-6.882 5.776-2.913 11.18-6.528 16.673-9.937 5.514-3.422 11.409-6.203 17.315-8.866 5.614-2.699 11.772-4.57 17.787-6.126 1.257-.325 2.708-.755 3.977-.229 1.478.612 1.262 2.759-.238 3.181zM35.888 42.824c-3.955-.275-7.905-.677-11.851-1.208-.98-9.426-2.397-18.126-4.151-26.077 3.904-1.479 7.801-3.087 11.691-4.821 1.894 9.958 3.364 20.671 4.311 32.106z" fill="#b8c4c9"/></svg>