<svg xmlns="http://www.w3.org/2000/svg" width="215.564" height="204.384" xmlns:v="https://vecta.io/nano"><path d="M206.175 61.409c-2.713 26.57-20.863 22.325-49.294 4.041-29.016-17.344-40.886-31.717-18.288-45.956 22.404-13.696 48.737-21.229 56.6-15.818 8.34 4.637 13.295 31.577 10.982 57.733z" fill="#282828" stroke="#3f3f3f" stroke-miterlimit="10"/><path d="M196.681 52.958c-1.858 18.202-14.292 15.294-33.769 2.769-19.878-11.882-28.01-21.729-12.529-31.483 15.349-9.383 33.389-14.543 38.775-10.836 5.713 3.176 9.108 21.631 7.523 39.55z" fill="#f9bdbd"/><path d="M12.349 61.409c2.713 26.57 20.863 22.325 49.294 4.041 29.016-17.344 40.886-31.717 18.288-45.956C57.526 5.798 31.193-1.735 23.33 3.676c-8.34 4.637-13.295 31.577-10.981 57.733z" fill="#282828" stroke="#3f3f3f" stroke-miterlimit="10"/><path d="M21.831 56.048c1.862 18.234 14.318 15.321 33.829 2.773 19.912-11.902 28.058-21.766 12.55-31.537-15.375-9.399-33.445-14.569-38.842-10.855-5.723 3.182-9.124 21.67-7.537 39.619z" fill="#f9bdbd"/><path d="M211.556 106.724c12.994 54.014-33.472 96.425-103.615 95.741-70.143.683-116.61-41.728-103.616-95.741C17.233 52.53 63.036 20.89 107.94 21.397c44.904-.507 90.707 31.133 103.616 85.327z" fill="#282828" stroke="#3f3f3f" stroke-miterlimit="10"/><path d="M120.884 154.972l-4.129-2.76-8.126-5.216-.122-8.872-.138-4.572c-.078-1.524-.779-1.524-.857 0l-.137 4.572-.122 8.873-8.125 5.215-4.127 2.76-4.065 2.853 4.347-2.425 4.299-2.517 8.33-5.089 8.423 5.089 4.281 2.517 4.339 2.425-4.071-2.853z" fill="#fff"/><path d="M96.929 126.111c-1.171-3.945 3.635-4.839 11.012-4.837s12.183.891 11.012 4.837c-1.135 3.884-5.984 8.567-11.012 8.503-5.028.065-9.878-4.619-11.012-8.503z" fill="#f9bdbd"/></svg>