<svg xmlns="http://www.w3.org/2000/svg" width="196" height="129.696" stroke="#3f3f3f" stroke-miterlimit="10" xmlns:v="https://vecta.io/nano"><path d="M41.193 55.687C34.941 73.584 23.188 91.151 11.5 89.158c-11.825-1.882-14.424-28.521-.893-51.39C24.12 14.957 40.596 7.435 44.924 13.964c4.541 6.821 2.299 23.513-3.731 41.723z" fill="#282828"/><g fill="#eaeaea"><path d="M154.808 55.687c6.251 17.897 18.004 35.465 29.693 33.472 11.824-1.882 14.423-28.521.893-51.39-13.514-22.812-29.989-30.334-34.317-23.805-4.541 6.821-2.3 23.513 3.731 41.723z"/><path d="M171.603 70.652c-1.702 35.309-34.569 58.123-73.737 58.244-39.167-.121-72.034-22.936-73.735-58.244C22.376 35.542 55.228.727 97.865.801c42.638-.074 75.491 34.741 73.738 69.851z"/></g></svg>