<svg xmlns="http://www.w3.org/2000/svg" xmlns:xlink="http://www.w3.org/1999/xlink" width="215.564" height="204.384" xmlns:v="https://vecta.io/nano"><path d="M206.017 61.409c-2.713 26.57-20.863 22.325-49.294 4.041-29.016-17.344-40.886-31.717-18.288-45.956 22.404-13.696 48.737-21.229 56.601-15.818 8.339 4.637 13.294 31.577 10.981 57.733z" fill="#282828" stroke="#3f3f3f" stroke-miterlimit="10"/><path d="M196.522 52.958c-1.858 18.202-14.292 15.294-33.769 2.769-19.878-11.882-28.01-21.729-12.529-31.483C165.573 14.86 183.613 9.7 189 13.407c5.713 3.177 9.107 21.632 7.522 39.551z" fill="#f9bdbd"/><path d="M12.19 61.409c2.713 26.57 20.863 22.325 49.294 4.041C90.5 48.106 102.37 33.733 79.772 19.494 57.368 5.798 31.035-1.735 23.172 3.676 14.832 8.313 9.877 35.253 12.19 61.409z" fill="#282828" stroke="#3f3f3f" stroke-miterlimit="10"/><path d="M21.673 56.048c1.862 18.234 14.318 15.321 33.829 2.773 19.912-11.902 28.058-21.766 12.55-31.537-15.375-9.399-33.446-14.569-38.842-10.855-5.724 3.182-9.124 21.67-7.537 39.619z" fill="#f9bdbd"/><use xlink:href="#B" fill="#eaeaea"/><path d="M211.397 106.724C198.489 52.53 152.686 20.89 107.782 21.397 62.878 20.89 17.075 52.53 4.167 106.724c-5.847 24.303.35 46.254 15.318 62.99 5.744-10.266 18.598-25.526 29.734-30.666 14.528-6.705 29.309-31.37 29.309-31.37l3.104-4.621c.006-.008.001-.026.006-.036 2.583-3.31 5.327-8.708 8.586-12.49 4.881-6.396 10.963-8.962 17.049-9.16 6.086.198 12.168 2.763 17.049 9.159 2.837 3.292 5.284 7.813 7.574 11.114l-.01.004.088.106c.798 1.143 1.577 2.125 2.348 2.857l2.764 3.363c1.718 2.799 15.532 24.799 29.128 31.073 11.17 5.155 24.067 20.49 29.786 30.757 15.027-16.747 21.255-38.734 15.397-63.08z" fill="#282828"/><path d="M120.726 154.972l-4.129-2.76-8.126-5.216-.122-8.872-.138-4.572c-.078-1.524-.779-1.524-.857 0l-.137 4.572-.122 8.873-8.125 5.215-4.127 2.76-4.065 2.853 4.347-2.425 4.299-2.517 8.33-5.089 8.423 5.089 4.281 2.517 4.339 2.425-4.071-2.853z" fill="#3f3f3f"/><path d="M96.771 126.111c-1.171-3.945 3.635-4.839 11.012-4.837s12.183.891 11.012 4.837c-1.135 3.884-5.984 8.567-11.012 8.503-5.028.065-9.878-4.619-11.012-8.503z" fill="#f9bdbd"/><use xlink:href="#B" fill="none" stroke="#3f3f3f" stroke-miterlimit="10"/><defs ><path id="B" d="M211.397 106.724c12.994 54.014-33.472 96.425-103.615 95.741-70.142.683-116.609-41.728-103.615-95.741C17.075 52.53 62.878 20.89 107.782 21.397c44.904-.507 90.707 31.133 103.615 85.327z"/></defs></svg>