<svg xmlns="http://www.w3.org/2000/svg" width="215.565" height="204.384" xmlns:v="https://vecta.io/nano"><path d="M205.795 61.409c-2.713 26.57-20.863 22.325-49.294 4.041-29.016-17.344-40.886-31.717-18.288-45.956 22.404-13.696 48.737-21.229 56.6-15.818 8.34 4.637 13.295 31.577 10.982 57.733z" fill="#594335" stroke="#3f3f3f" stroke-miterlimit="10"/><path d="M196.301 52.958c-1.858 18.202-14.292 15.294-33.769 2.769-19.878-11.882-28.01-21.729-12.529-31.483 15.349-9.383 33.389-14.543 38.775-10.836 5.713 3.176 9.108 21.631 7.523 39.55z" fill="#f9bdbd"/><path d="M11.969 61.409c2.713 26.57 20.863 22.325 49.294 4.041 29.016-17.344 40.886-31.717 18.288-45.956C57.146 5.798 30.813-1.735 22.95 3.676 14.61 8.313 9.655 35.253 11.969 61.409z" fill="#594335" stroke="#3f3f3f" stroke-miterlimit="10"/><path d="M21.452 56.048c1.862 18.234 14.318 15.321 33.829 2.773 19.912-11.902 28.058-21.766 12.55-31.537-15.375-9.399-33.446-14.569-38.843-10.855-5.723 3.182-9.124 21.67-7.536 39.619z" fill="#f9bdbd"/><path d="M211.176 106.724c12.994 54.014-33.472 96.425-103.615 95.741-70.143.684-116.61-41.728-103.615-95.741C16.854 52.53 62.657 20.89 107.561 21.397c44.903-.507 90.707 31.133 103.615 85.327z" fill="#f9e9ca" stroke="#3f3f3f" stroke-miterlimit="10"/><path d="M188.663 88.56c-6.088-4.216-13.427-5.705-20.658-7.698-.499-.269-1.006-.524-1.493-.816-.57-.342-1.118-.716-1.669-1.088-1.316-1.135-2.521-2.396-3.703-3.668-.51-.548-2.231-2.756-2.519-3.092-10.636-14.764-18.359-31.746-36.736-38.416-12.513-4.543-26.214-.623-35.343 8.775-7.083 7.292-12.548 16.139-18.468 24.359l-.9 1.217a27.85 27.85 0 0 1-.945 1.061c-1.247 1.391-2.604 2.678-3.965 3.954-.469.439-2.876 2.427-3.251 2.795a105.12 105.12 0 0 1-3.682 2.527c-.95.623-1.923 1.208-2.907 1.774C25.606 85.198 8.36 95.702 8.612 116.826c.117 32.783 43.585 79.445 98.948 79.11 55.364.333 98.833-46.327 98.949-79.11.156-13.106-6.424-22.125-17.846-28.266z" fill="#594335"/><path d="M120.504 154.972l-4.129-2.76-8.126-5.216-.122-8.872-.138-4.572c-.078-1.524-.779-1.524-.857 0l-.137 4.572-.122 8.873-8.125 5.215-4.126 2.76-4.066 2.853 4.347-2.425 4.298-2.517 8.33-5.089 8.423 5.089 4.281 2.517 4.339 2.425-4.07-2.853z" fill="#fff"/><path d="M96.548 126.111c-1.17-3.945 3.636-4.839 11.012-4.837s12.183.891 11.012 4.837c-1.135 3.884-5.984 8.567-11.012 8.503-5.027.065-9.876-4.619-11.012-8.503z" fill="#f9bdbd"/></svg>