<svg xmlns="http://www.w3.org/2000/svg" xmlns:xlink="http://www.w3.org/1999/xlink" width="196" height="129.696" xmlns:v="https://vecta.io/nano"><path d="M41.193 55.225C34.941 73.122 23.188 90.689 11.5 88.696c-11.825-1.882-14.424-28.521-.893-51.39C24.12 14.495 40.596 6.973 44.924 13.502c4.541 6.821 2.299 23.513-3.731 41.723zm113.615 0c6.251 17.897 18.004 35.465 29.693 33.472 11.824-1.882 14.423-28.521.893-51.39-13.514-22.812-29.989-30.334-34.317-23.805-4.54 6.821-2.299 23.513 3.731 41.723z" fill="#594335" stroke="#3f3f3f" stroke-miterlimit="10"/><path d="M171.603 70.19c-1.702 35.309-34.569 58.123-73.737 58.244-39.168-.121-72.035-22.936-73.737-58.244C22.375 35.08 55.228.265 97.866.339c42.637-.074 75.491 34.741 73.737 69.851z" fill="#f9e9ca" stroke="#3f3f3f" stroke-miterlimit="10"/><defs><path id="A" d="M413.833 105.924c12.994 54.014-33.472 96.425-103.616 95.741-70.143.684-116.609-41.728-103.615-95.741C219.51 51.73 265.313 20.09 310.217 20.598c44.904-.508 90.708 31.132 103.616 85.326z"/></defs><clipPath id="B"><use xlink:href="#A"/></clipPath><g opacity=".5" clip-path="url(#B)"><path d="M214.696 131.431c-8.3-.686-16.741-4.593-12.218-13.226 2.133-3.818 4.42-4.533-2.09-.23-5.537 3.507-17.177 13.214-17.536 18.365-1.045 16.425 23.874 16.979 49.353 9.988 8.748-2.478 7.533-5.974.939-8.461-7.822-3.196-14.684-6.023-18.448-6.436z" fill="#828282"/></g><use xlink:href="#A" fill="none" stroke="#3f3f3f" stroke-miterlimit="10"/></svg>