<svg xmlns="http://www.w3.org/2000/svg" xmlns:xlink="http://www.w3.org/1999/xlink" width="196" height="129.696" xmlns:v="https://vecta.io/nano"><style><![CDATA[.J{opacity:.2}.K{stroke:#3f3f3f}.L{stroke-miterlimit:10}.M{fill:#474747}.N{fill:#282828}]]></style><path d="M41.193 55.687C34.941 73.584 23.188 91.151 11.5 89.158c-11.825-1.882-14.424-28.521-.893-51.39C24.12 14.957 40.596 7.435 44.924 13.964c4.541 6.821 2.299 23.513-3.731 41.723z" class="N"/><path d="M29.846 77.985c.148-1.618.18-3.221.015-4.859-.333-3.321 1.073-7.267-.269-10.494-2.194-5.282-7.243-8.41-8.393-13.962-1.049-5.068.014-10.533-.923-15.707-.384-2.123-1.2-4.077-2.317-5.844-2.488 3.081-4.966 6.622-7.352 10.649-13.531 22.87-10.932 49.508.893 51.39 6.401 1.092 12.819-3.69 18.346-11.173z" fill="#f77941"/><defs><path id="A" d="M41.193 55.687C34.941 73.584 23.188 91.151 11.5 89.158c-11.825-1.882-14.424-28.521-.893-51.39C24.12 14.957 40.596 7.435 44.924 13.964c4.541 6.821 2.299 23.513-3.731 41.723z"/></defs><clipPath id="B"><use xlink:href="#A"/></clipPath><g clip-path="url(#B)" class="M"><path d="M26.564 84.936l.246.217c.722.547.64.475-.246-.217m-10.7-13.515c-6.56 0-2.293 19.992-1.717 19.992.188 0 20.748-.103 12.663-6.261.398.668-7.453-13.731-10.946-13.731m1.898-28.365l1.348.683c2.958 1.101-.901-.495-1.348-.683M1.141 37.315c-9.717 0-5.994 11.652 4.216 11.652-2.516 0 26.623-.002 13.753-5.229-3.912-2.357-12.066-6.423-17.969-6.423" class="J"/></g><use xlink:href="#A" fill="none" class="K L"/><path d="M154.808 55.687c6.251 17.897 18.004 35.465 29.693 33.472 11.824-1.882 14.423-28.521.893-51.39-13.514-22.812-29.989-30.334-34.317-23.805-4.541 6.821-2.3 23.513 3.731 41.723z" class="N"/><defs><path id="C" d="M154.808 55.687c6.251 17.897 18.004 35.465 29.693 33.472 11.824-1.882 14.423-28.521.893-51.39-13.514-22.812-29.989-30.334-34.317-23.805-4.541 6.821-2.3 23.513 3.731 41.723z"/></defs><clipPath id="D"><use xlink:href="#C"/></clipPath><g clip-path="url(#D)" class="M"><path d="M187.429 21.717c-.468 0-.826.225-1.012.748h0 0l-.069.151c-.004 0 .009-.041.031-.107-.945 1.001-18.889 18.352-12.085 18.352.851 0 2.087-.271 3.793-.879 4.288-1.502 15.075-5.042 16.941-10.319.585-1.503-5.091-7.946-7.599-7.946m-.675-.228a12.67 12.67 0 0 0-.214.563l-.161.456c.023-.025.036-.04.038-.044h0 0l.337-.975m-5.659 50.824c-2.309-.001-6.487 7.513-9.17 15.025s-3.866 15.025-.188 15.025c.115 0 .234-.008.358-.022 13.19-1.575 14.746-18.958 10.332-28.647a2.18 2.18 0 0 0 .083.151 21.11 21.11 0 0 0-.382-.778h0l-.301-.556c-.004 0 .063.134.155.316-.248-.351-.547-.514-.887-.514" class="J"/></g><use xlink:href="#C" fill="none" class="K L"/><path d="M171.603 70.652c-1.702 35.309-34.569 58.123-73.737 58.244-39.167-.121-72.034-22.936-73.735-58.244C22.376 35.542 55.228.727 97.865.801c42.638-.074 75.491 34.741 73.738 69.851z" class="N"/><path d="M24.13 70.652c.348 7.213 2.015 13.894 4.751 19.977 1.893-.508 3.618-1.599 4.622-3.218 1.771-2.855 3.385-5.697 5.765-8.091 3.113-3.131 7.432-5.336 11.15-7.651 7.582-4.72 15.428-9.661 19.544-17.895 3.688-7.378 3.571-15.73 5.964-23.487 1.246-4.04 3.618-7.758 5.223-11.672 1.778-4.338 1.613-9.199.443-13.649a7.87 7.87 0 0 0-.953-2.224C46.73 10.486 22.621 40.449 24.13 70.652zm147.473 0c1.322-26.48-17.045-52.784-44.444-64.088-.194.938-.224 1.959-.03 3.056 2.229 12.592-2.539 24.236-8.475 35.086-5.32 9.726-12.322 19.057-14.01 30.292-1.723 11.466 3.949 24.522 15.684 28.357 5.721 1.87 11.836.886 17.533 2.774 4.34 1.439 7.634 4.717 12.065 5.928 12.668-10.084 20.85-24.266 21.677-41.405z" fill="#f77941"/><defs><path id="E" d="M171.603 70.652c-1.702 35.309-34.569 58.123-73.737 58.244-39.167-.121-72.034-22.936-73.735-58.244C22.376 35.542 55.228.727 97.865.801c42.638-.074 75.491 34.741 73.738 69.851z"/></defs><clipPath id="F"><use xlink:href="#E"/></clipPath><g clip-path="url(#F)" class="M"><path d="M28.105 35.213c-1.323 0-11.747 7.561-11.928 9.823 1.084 3.229 1.676 8.21 10.789 12.439 9.799 4.565 23.276 5.068 34.375 7.489.815.17 1.51.25 2.093.25 8.124 0-5.413-15.456-11.849-15.83-6.582-.885-13.217-.013-19.286-2.38-5.116-1.949-5.19-8.303-4.37-11.116.365-.469.394-.675.176-.675m17.591 50.663c-1.011 0-1.597.737-3.014 2.127-1.991 2.464-9.489 8.017-16.564 8.67-5.604.055-20.711 13.644-12.27 13.644.434 0 .928-.035 1.489-.11 9.627-1.473 19.23-5.373 25.643-8.731 5.082-2.458 7.822-5.52 12.088-5.52 1.061 0 2.215.189 3.524.624 1.295.272 2.301.396 3.055.396 5.229 0-1.695-5.912-8.202-8.707-3.247-1.626-4.718-2.393-5.749-2.393" class="J"/><path d="M22.916 61.495c-.905 0-3.152 1.713-5.996 3.971-2.186 1.243-5.561 3.454-8.351 6.455-6.756 7.3-7.347 11.701.45 11.701a28.05 28.05 0 0 0 2.665-.141c13.952-1.048 32.053-2.391 42.425-5.866 5.514-1.646-5.902-6.711-11.361-8.323-10.969-2.893-17.244-3.986-19.426-7.499-.055-.203-.194-.298-.406-.298M171.68 32.496c-.779 0-.81.937.359 3.121 3.296 9.663-10.653 10.376-19.475 10.691-6.784.931-21.431 6.753-9.204 8.139 6.472.892 13.629 1.594 20.093 1.594 13.657 0 24.219-3.137 18.681-14.264-4.02-5.263-8.841-9.281-10.454-9.281m3.448 25.762c-1.097 0-1.525.564-1.837 1.354-.907 1.758-3.27 3.357-6.738 4.162-3.735.956-9.694 2.681-15.107 2.961-5.601 1.064-29.793 8.406-16.478 8.947l2.603.132c11.536 2.736 30.075 7.865 49.171 9.531 1.507.178 3.01.265 4.466.265 12.26 0 21.348-6.198 3.937-17.249-12.684-7.716-17.762-10.103-20.017-10.103m-32.645 29.315c-11.436.344 6.145 13.792 11.582 13.792.292 0 .548-.038.763-.119.256-.034.524-.051.801-.051 3.327 0 7.991 2.322 9.565 3.107 1.777.754 2.772 1.079 3.698 1.079.329 0 .648-.041.992-.118.556-.939 15.826-11.735 9.697-11.736-.253-.001-.541.018-.868.056a49.19 49.19 0 0 1-2.634.072c-4.484 0-8.662-.653-14.379-2.021-5.596-1.33-12.045-3.947-19.217-4.061" class="J"/></g><use xlink:href="#E" fill="none" class="K L"/><defs><path id="G" d="M-13.167 105.228c12.994 54.014-33.472 96.425-103.616 95.741-70.143.684-116.609-41.728-103.615-95.741 12.908-54.193 58.711-85.834 103.615-85.326 44.904-.508 90.708 31.132 103.616 85.326z"/></defs><clipPath id="H"><use xlink:href="#G"/></clipPath><g clip-path="url(#H)" class="M"><path d="M-6.904 123.005c-.138 0 1.329.871 2.741 2.397 5.665 6.527-4.904 9.481-15.299 10-4.714.313-13.306 2.45-23.102 4.867-8.257 1.881-9.777 4.524 1.178 6.397 12.205 2.021 24.307 3.209 34.525 3.209 16.493 0 28.081-3.093 27.273-10.762-.449-3.895-15.024-11.234-21.959-13.886l-5.357-2.222" class="J"/></g><use xlink:href="#G" fill="none" class="K L"/><defs><path id="I" d="M414.396 105.34c12.994 54.014-33.471 96.425-103.613 95.741-70.143.684-116.609-41.728-103.615-95.741 12.908-54.193 58.711-85.834 103.615-85.326 44.903-.508 90.705 31.132 103.613 85.326z"/></defs><clipPath id="J"><use xlink:href="#I"/></clipPath><path d="M215.262 130.847c-8.301-.686-16.742-4.593-12.219-13.226 2.133-3.818 4.42-4.533-2.09-.23-5.537 3.507-17.176 13.214-17.535 18.365-1.045 16.425 23.873 16.979 49.352 9.988 8.748-2.478 7.533-5.974.939-8.461-7.822-3.196-14.684-6.023-18.447-6.436z" clip-path="url(#J)" fill="#828282"/><use xlink:href="#I" fill="none" class="K L"/></svg>