<svg xmlns="http://www.w3.org/2000/svg" xmlns:xlink="http://www.w3.org/1999/xlink" width="215.565" height="204.384" xmlns:v="https://vecta.io/nano"><path d="M206.017 60.913c-2.713 26.57-20.863 22.325-49.294 4.041-29.016-17.344-40.886-31.717-18.288-45.956C160.839 5.302 187.172-2.231 195.036 3.18c8.339 4.637 13.295 31.577 10.981 57.733z" fill="#f77941" stroke="#3f3f3f" stroke-miterlimit="10"/><path d="M196.523 52.462c-1.858 18.202-14.292 15.294-33.769 2.769-19.878-11.882-28.01-21.729-12.529-31.483C165.574 14.364 183.614 9.204 189 12.911c5.713 3.177 9.108 21.632 7.523 39.551z" fill="#f9bdbd"/><path d="M12.19 60.913c2.713 26.57 20.863 22.325 49.294 4.041C90.5 47.61 102.37 33.237 79.772 18.998 57.368 5.302 31.035-2.231 23.172 3.18 14.832 7.817 9.877 34.757 12.19 60.913z" fill="#282828" stroke="#3f3f3f" stroke-miterlimit="10"/><path d="M21.673 55.552c1.862 18.234 14.318 15.321 33.829 2.773C75.414 46.423 83.56 36.56 68.052 26.788 52.677 17.389 34.606 12.219 29.21 15.933c-5.724 3.182-9.124 21.67-7.537 39.619z" fill="#f9bdbd"/><path d="M211.398 106.228c12.994 54.014-33.472 96.425-103.616 95.741-70.142.683-116.609-41.728-103.615-95.741 12.908-54.193 58.711-85.834 103.615-85.326 44.904-.508 90.708 31.132 103.616 85.326z" fill="#282828"/><path d="M109.143 20.916c-1.46 3.794-.272 8.433 4.835 9.419 10.697 2.063 16.934 12.354 19.877 22.104 3.871 12.827.577 26.757 2.197 39.893 1.528 12.396 7.043 23.914 18.906 29.303 6.699 3.043 13.955 3.95 21.244 3.337 7.656-.645 14.955-3.794 22.624-3.794 4.791 0 9.847 2.32 14.734 3.833.082-6.061-.612-12.338-2.163-18.782-12.776-53.648-57.789-85.173-102.254-85.313zM25.348 61.732C15.693 74.088 8.267 89.015 4.167 106.228c-5.181 21.536-.901 41.223 10.555 57.073 1.941-.687 3.563-2.283 4.231-4.954 1.393-5.564 3.905-10.749 5.256-16.325 1.408-5.823 1.538-12.33 1.74-18.294.26-7.642 3.035-14.47 5.615-21.61 2.625-7.267 5.18-15.202 4.185-23.022-.94-7.395-4.743-13.177-10.401-17.364zm157.487 111.365c-4.813-.938-9.498-2.113-14.375-2.734-11.566-1.473-23.227-1.461-34.84-.574-10.876.83-22.844 1.671-32.184 7.839-9.038 5.968-17.358 12.489-28.715 12.726-4.216.088-6.594 2.994-7.133 6.226 12.687 3.634 26.876 5.54 42.193 5.391 35.512.346 64.949-10.358 83.679-28.018-2.797.434-6.097-.363-8.625-.856z" fill="#f77941"/><defs><path id="A" d="M211.398 106.228c12.994 54.014-33.472 96.425-103.616 95.741-70.142.683-116.609-41.728-103.615-95.741 12.908-54.193 58.711-85.834 103.615-85.326 44.904-.508 90.708 31.132 103.616 85.326z"/></defs><clipPath id="B"><use xlink:href="#A"/></clipPath><g clip-path="url(#B)" fill="#474747"><path d="M87.252 18.516c-4.946 0-10.585 2.541-8.818 6.45 1.097 2.879 2.435 5.807 2.233 8.889-.202 2.862-2.486 5.189-3.637 7.169-2.211 3.638-.881 7.785 1.454 12.246 1.926 3.15 3.151 4.736 3.903 4.736.805 0 1.065-1.818 1.059-5.479-.631-4.567 3.084-8.409 6.037-12.65 3.801-5.641 4.732-11.703 4.359-17.246-.02-2.876-3.136-4.115-6.59-4.115m43.897-2.606c-4.629 0-9.385 1.884-8.123 5.207 1.68 6.222 2.776 12.389 5.852 18.748 1.266 2.756 2.828 5.109 4.01 7.374.521.968 1.547 1.726 1.48 3.11-.054 1.382-.268 2.805-.434 4.176-.228 3.452-.085 5.213.6 5.213.645 0 1.769-1.555 3.517-4.721 2.534-5.458 4.597-9.873 1.745-13.842-3.926-4.927-1.742-14.084-.922-20.54.358-3.252-3.633-4.725-7.725-4.725" opacity=".2"/><path d="M109.256 16.197c-7.129 0-15.098 3.717-11.876 9.396 2.687 6.32 1.14 10.725.312 16.733-.403 2.848-.096 5.745.275 8.704.42 2.931 1.765 5.971 2.113 8.859 1.541 5.689 3.419 9.424 5.087 9.424 1.105 0 2.118-1.64 2.878-5.436.696-3.276 1.172-6.311 1.497-9.612.359-3.918 1.919-7.589 3.927-11.229 3.986-7.254 6.225-13.962 5.352-21.432-.486-3.774-4.841-5.407-9.565-5.407M24.117 65.712c-.56 0-1.182.071-1.873.217-5.975 1.625-12.577 12.467-7.066 12.467a3.5 3.5 0 0 0 .176-.004h0c5.884-.001 3.038 10.436 4.232 17.54.778 5.389 3.415 11.35 9.552 17.555 3.406 3.46 8.443 6.883 12.898 9.241 1.93 1.019 3.675 1.891 5.502 2.691.69.302.97.364 1.086.364.041 0 .062-.008.073-.016s.013-.015.016-.015c.015 0 .059.204 1.588 1.662 4.321 4.004 9.516 6.619 11.887 6.619.721 0 1.18-.241 1.275-.759.571-2.635-4.537-9.511-9.246-15.013-3.941-4.527-7.395-7.834-10.658-9.39-1.729-.817-5.316-1.105-7.054-2.874-4.794-4.746-6.135-13.425-6.452-18.475-1.198-12.756.387-21.81-5.936-21.81M2.232 115.338c-.098 0-1.212.913-4.279 2.94-5.537 3.507-17.177 13.214-17.536 18.365-.645 10.142 8.61 14.232 21.781 14.232 8.161 0 17.825-1.57 27.572-4.244 8.748-2.478 7.533-5.974.939-8.461-7.822-3.196-14.684-6.023-18.448-6.437-8.3-.686-16.741-4.593-12.218-13.226 1.128-2.018 2.299-3.169 2.189-3.169m215.429 8.667c-.138 0 1.329.871 2.741 2.397 5.665 6.527-4.904 9.481-15.299 10-4.714.313-13.306 2.45-23.102 4.867-8.257 1.881-9.777 4.524 1.178 6.397 12.205 2.021 24.307 3.209 34.525 3.209 16.493 0 28.081-3.093 27.273-10.762-.449-3.895-15.024-11.234-21.959-13.886l-5.357-2.222" opacity=".2"/><path d="M195.504 65.712c-6.323.001-4.738 9.054-5.938 21.813-.317 5.05-1.657 13.729-6.452 18.475-1.738 1.769-5.326 2.057-7.054 2.874-3.263 1.556-6.718 4.862-10.658 9.39-4.708 5.502-9.817 12.378-9.247 15.013.095.518.555.759 1.275.759 2.371 0 7.566-2.615 11.889-6.619 1.529-1.458 1.573-1.662 1.587-1.662.003 0 .005.008.017.015s.031.016.072.016c.117 0 .397-.063 1.087-.364 1.827-.801 3.572-1.673 5.503-2.691 4.455-2.358 9.49-5.781 12.898-9.241 6.135-6.205 8.771-12.166 9.551-17.555 1.193-7.104-1.652-17.541 4.232-17.54a3.5 3.5 0 0 0 .176.004c5.512 0-1.092-10.842-7.065-12.467a8.92 8.92 0 0 0-1.873-.22" opacity=".2"/></g><use xlink:href="#A" fill="none" stroke="#3f3f3f" stroke-miterlimit="10"/><path d="M120.726 154.476l-4.129-2.76-8.126-5.216-.122-8.872-.138-4.572c-.078-1.524-.779-1.524-.857 0l-.137 4.572-.122 8.873-8.125 5.215-4.127 2.76-4.065 2.853 4.347-2.425 4.299-2.517 8.33-5.089 8.423 5.089 4.281 2.517 4.339 2.425-4.071-2.853z" fill="#fff"/><path d="M96.771 125.615c-1.171-3.945 3.635-4.839 11.012-4.837s12.183.891 11.012 4.837c-1.135 3.884-5.984 8.567-11.012 8.503-5.028.065-9.878-4.619-11.012-8.503z" fill="#f9bdbd"/></svg>