<svg xmlns="http://www.w3.org/2000/svg" xmlns:xlink="http://www.w3.org/1999/xlink" width="196" height="129.696" xmlns:v="https://vecta.io/nano"><style><![CDATA[.G{fill:#828282}.H{clip-path:url(#F)}.I{stroke:#3f3f3f}.J{stroke-miterlimit:10}.K{fill:#c6c6c6}.L{clip-path:url(#B)}.M{clip-path:url(#D)}]]></style><path d="M41.193 55.687C34.941 73.584 23.189 91.151 11.5 89.158c-11.824-1.882-14.424-28.521-.893-51.39C24.121 14.957 40.596 7.435 44.924 13.964c4.541 6.821 2.299 23.513-3.731 41.723z" class="K"/><defs><path id="A" d="M41.193 55.687C34.941 73.584 23.189 91.151 11.5 89.158c-11.824-1.882-14.424-28.521-.893-51.39C24.121 14.957 40.596 7.435 44.924 13.964c4.541 6.821 2.299 23.513-3.731 41.723z"/></defs><clipPath id="B"><use xlink:href="#A"/></clipPath><g class="L G"><path d="M26.811 85.152c-3.781-2.979-7.553-7.04-8.686-11.463-.646-2.43-.936-2.677-2.729-.813-1.896 1.997-4.307 6.027-3.533 8.696.979 3.286 1.793 5.698 2.283 9.767.258 3.429 6.287 2.397 10.266-.071 4.641-2.802 4.533-4.491 2.399-6.116z"/></g><g class="L G"><path d="M19.109 43.738c-5.549-2.561-8.414-5.848-9.701-7.332-.93-1.152-1.547-1.005-2.459-1.205C5.91 33.4-10.072 50.644.354 49.494c2.373-.465 4.717-1.047 7.049-1.363l.455-.045c.314.026 1.045.067 1.172.031.266.104.357.173.088-.237 1.574 2.934 6.684 3.158 11.086 1.006 3.843-1.839 3.107-3.442-1.095-5.148z"/></g><use xlink:href="#A" fill="none" class="I J"/><path d="M154.809 55.687c6.25 17.897 18.002 35.465 29.691 33.472 11.824-1.882 14.424-28.521.893-51.39-13.514-22.812-29.988-30.334-34.316-23.805-4.54 6.821-2.3 23.513 3.732 41.723z" class="K"/><defs><path id="C" d="M154.809 55.687c6.25 17.897 18.002 35.465 29.691 33.472 11.824-1.882 14.424-28.521.893-51.39-13.514-22.812-29.988-30.334-34.316-23.805-4.54 6.821-2.3 23.513 3.732 41.723z"/></defs><clipPath id="D"><use xlink:href="#C"/></clipPath><g class="M G"><path d="M186.416 22.465c-.373.896-.775 1.426-1.674 2.187-.67.567-1.859.989-2.402 1.004-1.756.005-5.691 2.863-8.523 7.708-2.734 4.692-.688 8.386 4.27 6.618 8.605-3.014 15.943-7.496 16.941-10.319.688-1.766-3.582-4.428-5.453-6.471-2.319-1.968-2.239-3.316-3.159-.727z"/></g><g class="M G"><path d="M182.129 73.066c-1.1-2.078-1.549-3.099-2.57-1.022-2.971 5.549-7.771 14.134-10.281 25.601-2.955 11.347 16.152-.61 14.662-5.703-.721-3.687-1.205-8.847-.002-11.966.728-1.897-.547-4.387-1.809-6.91z"/></g><use xlink:href="#C" fill="none" class="I J"/><path d="M171.602 70.652c-1.701 35.309-34.568 58.123-73.736 58.244-39.166-.121-72.033-22.936-73.734-58.244C22.377 35.542 55.229.727 97.865.801c42.639-.074 75.49 34.741 73.737 69.851z" class="K"/><defs><path id="E" d="M171.602 70.652c-1.701 35.309-34.568 58.123-73.736 58.244-39.166-.121-72.033-22.936-73.734-58.244C22.377 35.542 55.229.727 97.865.801c42.639-.074 75.49 34.741 73.737 69.851z"/></defs><clipPath id="F"><use xlink:href="#E"/></clipPath><g class="H G"><path d="M51.586 49.385c-6.582-.885-13.217-.013-19.285-2.38-5.117-1.949-5.191-8.303-4.371-11.116 2.572-3.315-11.541 6.511-11.752 9.147 1.084 3.229 1.676 8.21 10.789 12.439 9.799 4.565 23.277 5.068 34.375 7.489 12.193 2.545-2.86-15.179-9.756-15.579z"/></g><g class="H G"><path d="M51.445 88.268c-6.432-3.219-5.9-3.07-8.762-.265-1.992 2.464-9.49 8.017-16.564 8.67-5.893.058-22.289 15.073-10.781 13.533 9.627-1.473 19.23-5.373 25.643-8.731 6.346-3.069 9.039-7.079 15.613-4.896 10.285 2.164 2.297-5.114-5.149-8.311z"/></g><g class="H G"><path d="M42.748 69.292c-10.969-2.893-17.244-3.986-19.426-7.499-.291-1.071-2.891.886-6.402 3.673-2.186 1.243-5.561 3.454-8.35 6.455-7.449 8.049-7.406 12.572 3.115 11.561 13.951-1.048 32.053-2.391 42.424-5.866 5.514-1.647-5.902-6.712-11.361-8.324z"/></g><g class="H G"><path d="M172.039 35.617c3.295 9.663-10.652 10.376-19.475 10.691-6.783.931-21.43 6.753-9.203 8.139 20.145 2.774 46.932 3.723 38.771-12.67-5.96-7.806-13.681-12.869-10.093-6.16z"/></g><g class="H G"><path d="M195.143 68.361c-18.852-11.47-20.9-11.163-21.852-8.749-.908 1.758-3.27 3.357-6.738 4.162-3.734.956-9.693 2.681-15.107 2.961-5.6 1.064-29.793 8.406-16.477 8.947l2.602.132c11.537 2.736 30.076 7.865 49.17 9.531 14.191 1.671 27.882-4.62 8.402-16.984z"/></g><g class="H G"><path d="M154.828 101.246c3.33-.448 8.662 2.206 10.367 3.057 2.408 1.021 3.381 1.257 4.689.961.578-.978 17.109-12.642 8.828-11.681-5.568.297-10.195-.318-17.012-1.949-5.596-1.33-12.045-3.947-19.217-4.061-12.047.363 8.111 15.27 12.345 13.673z"/></g><use xlink:href="#E" fill="none" class="I J"/><defs><path id="G" d="M-9.604 107.036c12.994 54.014-33.471 96.425-103.613 95.741-70.143.684-116.609-41.728-103.615-95.741 12.908-54.193 58.711-85.834 103.615-85.326 44.903-.508 90.705 31.133 103.613 85.326z"/></defs><clipPath id="H"><use xlink:href="#G"/></clipPath><path d="M-15.898 137.211c10.395-.519 20.965-3.473 15.299-10-2.67-2.887-5.535-3.428 2.617-.174 6.936 2.651 21.51 9.991 21.959 13.886 1.309 12.42-29.895 12.838-61.799 7.553-10.953-1.873-9.434-4.517-1.178-6.397 9.797-2.418 18.389-4.556 23.102-4.868z" clip-path="url(#H)" class="G"/><use xlink:href="#G" fill="none" class="I J"/></svg>