<svg xmlns="http://www.w3.org/2000/svg" xmlns:xlink="http://www.w3.org/1999/xlink" width="215.564" height="204.384" xmlns:v="https://vecta.io/nano"><defs><path id="A" d="M-31.397 72.036c-1.702 35.309-34.569 58.123-73.737 58.244-39.167-.121-72.034-22.936-73.735-58.244-1.754-35.11 31.098-69.926 73.735-69.852 42.637-.074 75.49 34.742 73.737 69.852z"/></defs><clipPath id="B"><use xlink:href="#A"/></clipPath><g clip-path="url(#B)"><path d="M-7.856 69.745c-18.852-11.47-20.9-11.163-21.853-8.749-.907 1.758-3.27 3.357-6.738 4.162-3.735.956-9.694 2.681-15.107 2.961-5.601 1.064-29.793 8.406-16.478 8.947l2.603.132c11.536 2.736 30.075 7.865 49.171 9.531 14.191 1.67 27.881-4.621 8.402-16.984z" fill="#d6d6d6"/></g><g stroke="#3f3f3f" stroke-miterlimit="10"><use xlink:href="#A" fill="none"/><path d="M206.016 61.409c-2.713 26.57-20.863 22.325-49.293 4.041-29.016-17.344-40.885-31.717-18.287-45.956 22.404-13.696 48.736-21.229 56.6-15.818 8.339 4.637 13.294 31.577 10.98 57.733z" fill="#c6c6c6"/></g><path d="M196.521 52.958c-1.857 18.202-14.291 15.294-33.768 2.769-19.877-11.882-28.01-21.729-12.529-31.483C165.574 14.86 183.613 9.7 189 13.407c5.713 3.177 9.107 21.632 7.521 39.551z" fill="#f9bdbd"/><path d="M12.191 61.409c2.713 26.57 20.863 22.325 49.293 4.041C90.5 48.106 102.371 33.733 79.773 19.494 57.369 5.798 31.035-1.735 23.172 3.676c-8.34 4.637-13.295 31.577-10.981 57.733z" fill="#c6c6c6" stroke="#3f3f3f" stroke-miterlimit="10"/><path d="M21.674 56.048c1.861 18.234 14.318 15.321 33.828 2.773 19.912-11.902 28.059-21.766 12.551-31.537-15.375-9.399-33.445-14.569-38.842-10.855-5.725 3.182-9.125 21.67-7.537 39.619z" fill="#f9bdbd"/><path d="M211.396 106.724c12.994 54.014-33.471 96.425-103.613 95.741-70.142.683-116.609-41.728-103.615-95.741C17.076 52.53 62.879 20.89 107.783 21.397c44.903-.507 90.705 31.133 103.613 85.327z" fill="#c6c6c6"/><defs><path id="C" d="M211.396 106.724c12.994 54.014-33.471 96.425-103.613 95.741-70.142.683-116.609-41.728-103.615-95.741C17.076 52.53 62.879 20.89 107.783 21.397c44.903-.507 90.705 31.133 103.613 85.327z"/></defs><clipPath id="D"><use xlink:href="#C"/></clipPath><path d="M83.447 53.023c-.631-4.567 3.084-8.409 6.037-12.65 3.801-5.641 4.732-11.703 4.359-17.246-.053-6.996-18.41-4.304-15.408 2.335 1.096 2.879 2.434 5.807 2.232 8.889-.201 2.862-2.486 5.189-3.637 7.169-2.211 3.638-.881 7.785 1.455 12.246 3.99 6.525 4.974 6.336 4.962-.743zm45.432-12.662c1.266 2.756 2.828 5.109 4.01 7.374.521.968 1.547 1.726 1.48 3.11-.055 1.382-.268 2.805-.434 4.176-.441 6.697.508 7.027 4.115.492 2.535-5.458 4.598-9.873 1.746-13.842-3.926-4.927-1.742-14.084-.922-20.54.762-6.933-18.227-5.779-15.848.481 1.681 6.223 2.777 12.39 5.853 18.749zM100.08 60.387c2.563 9.46 6.057 13.513 7.967 3.988a85.22 85.22 0 0 0 1.496-9.612c.359-3.918 1.92-7.589 3.928-11.229 3.986-7.254 6.225-13.962 5.352-21.432-1.219-9.475-26.799-5.454-21.441 3.988 2.686 6.32 1.139 10.725.311 16.733-.402 2.848-.096 5.745.275 8.704.419 2.931 1.764 5.971 2.112 8.86zm-45.861 58.372c-3.941-4.527-7.395-7.834-10.658-9.39-1.729-.817-5.316-1.105-7.053-2.874-4.795-4.746-6.135-13.425-6.453-18.475-1.305-13.889.689-23.386-7.811-21.596-6.037 1.642-12.715 12.693-6.889 12.463 5.883-.001 3.037 10.436 4.232 17.54.777 5.389 3.414 11.35 9.551 17.555 3.406 3.46 8.443 6.883 12.898 9.241 1.93 1.019 3.676 1.891 5.502 2.691 2.422 1.061-.205-.835 2.764 1.996 5.635 5.221 12.754 8.081 13.162 5.86.573-2.633-4.536-9.509-9.245-15.011zM12.262 132.23c-8.301-.686-16.742-4.593-12.219-13.226 2.133-3.818 4.42-4.533-2.09-.23-5.537 3.507-17.176 13.214-17.535 18.365-1.045 16.425 23.873 16.979 49.352 9.988 8.748-2.478 7.533-5.974.939-8.461-7.822-3.195-14.684-6.022-18.447-6.436zm192.84 4.668c10.395-.519 20.965-3.473 15.299-10-2.67-2.887-5.535-3.428 2.617-.174 6.936 2.651 21.51 9.991 21.959 13.886 1.309 12.42-29.895 12.838-61.799 7.553-10.953-1.873-9.434-4.517-1.178-6.397 9.797-2.417 18.389-4.555 23.102-4.868zm-39.7-18.139c3.941-4.527 7.396-7.834 10.658-9.39 1.729-.817 5.314-1.105 7.053-2.874 4.795-4.746 6.135-13.425 6.453-18.475 1.305-13.889-.689-23.386 7.811-21.596 6.035 1.642 12.715 12.693 6.889 12.463-5.885-.001-3.039 10.436-4.232 17.54-.779 5.389-3.416 11.35-9.551 17.555-3.408 3.46-8.443 6.883-12.896 9.241-1.932 1.019-3.676 1.891-5.504 2.691-2.422 1.061.205-.835-2.762 1.996-5.637 5.221-12.756 8.081-13.164 5.86-.571-2.633 4.538-9.509 9.245-15.011z" clip-path="url(#D)" fill="#828282"/><use xlink:href="#C" fill="none" stroke="#3f3f3f" stroke-miterlimit="10"/><path d="M120.727 154.972l-4.129-2.76-8.127-5.216-.121-8.872-.139-4.572c-.078-1.524-.779-1.524-.857 0l-.137 4.572-.121 8.873-8.125 5.215-4.127 2.76-4.066 2.853 4.348-2.425 4.299-2.517 8.33-5.089 8.422 5.089 4.281 2.517 4.34 2.425-4.071-2.853z" fill="#3f3f3f"/><path d="M96.771 126.111c-1.172-3.945 3.635-4.839 11.012-4.837s12.182.891 11.012 4.837c-1.135 3.884-5.984 8.567-11.012 8.503-5.027.065-9.877-4.619-11.012-8.503z" fill="#f9bdbd"/></svg>