<svg xmlns="http://www.w3.org/2000/svg" xmlns:xlink="http://www.w3.org/1999/xlink" width="174.625" height="40.6" xmlns:v="https://vecta.io/nano"><path d="M71.717 17.372c4.182 10.492-10.646 20.632-33.133 22.479-22.506 1.656-39.182-5.13-37.227-15.05C3.313 14.906 17.951 3.302 34.334.88 50.73-1.4 67.541 6.904 71.717 17.372zm31.191 0c-4.182 10.492 10.648 20.632 33.133 22.479 22.506 1.656 39.182-5.13 37.227-15.05-1.955-9.895-16.594-21.499-32.975-23.921-16.398-2.28-33.209 6.024-37.385 16.492z" fill="#c6c6c6" stroke="#3f3f3f" stroke-miterlimit="10"/><defs><path id="A" d="M-9.604-28.66c12.995 54.014-33.47 96.425-103.613 95.741-70.143.684-116.609-41.728-103.615-95.741 12.908-54.193 58.711-85.834 103.615-85.326 44.903-.508 90.705 31.132 103.613 85.326z"/></defs><clipPath id="B"><use xlink:href="#A"/></clipPath><path d="M-15.898 1.515C-5.504.996 5.066-1.958-.6-8.485c-2.67-2.887-5.535-3.428 2.617-.174 6.936 2.651 21.51 9.991 21.959 13.886 1.309 12.42-29.895 12.838-61.799 7.553-10.952-1.874-9.433-4.517-1.177-6.398 9.797-2.417 18.389-4.555 23.102-4.867z" clip-path="url(#B)" fill="#828282"/><use xlink:href="#A" fill="none" stroke="#3f3f3f" stroke-miterlimit="10"/></svg>