<svg xmlns="http://www.w3.org/2000/svg" width="196" height="129.696" fill="#eaeaea" stroke="#3f3f3f" stroke-miterlimit="10" xmlns:v="https://vecta.io/nano"><path d="M40.94 55.687c-6.252 17.897-18.004 35.465-29.693 33.472-11.824-1.882-14.424-28.521-.893-51.39C23.868 14.957 40.343 7.435 44.671 13.964c4.541 6.821 2.299 23.513-3.731 41.723zm113.616 0c6.25 17.897 18.004 35.465 29.693 33.472 11.824-1.882 14.422-28.521.893-51.39-13.514-22.812-29.99-30.334-34.318-23.805-4.54 6.821-2.3 23.513 3.732 41.723z"/><path d="M171.351 70.652c-1.703 35.309-34.57 58.123-73.738 58.244-39.166-.121-72.033-22.936-73.734-58.244C22.124 35.542 54.976.727 97.612.801c42.639-.074 75.492 34.741 73.739 69.851z"/></svg>