<svg xmlns="http://www.w3.org/2000/svg" width="175.941" height="34.679" xmlns:v="https://vecta.io/nano"><path d="M57.483 26.351c-4.134-8.81-8.989-16.474-17.265-21.778C32.884-.13 23.95-1.598 15.424.202c-.462.098-1.114.396-1.468.787C5.209 5.146-6.427 22.314 6.384 27.065c13.749 5.098 32.041 5.707 46.24 1.107 2.262.396 5.561-.326 4.859-1.821zM6.65 17.834c-1.035 0-1.875-.84-1.875-1.875s.84-1.875 1.875-1.875 1.875.84 1.875 1.875-.839 1.875-1.875 1.875zm3-7c-1.035 0-1.875-.84-1.875-1.875s.84-1.875 1.875-1.875 1.875.84 1.875 1.875-.839 1.875-1.875 1.875zm3.125-6.875c0-1.035.84-1.875 1.875-1.875s1.875.84 1.875 1.875-.84 1.875-1.875 1.875-1.875-.84-1.875-1.875zm2.875 16.875c-1.035 0-1.875-.84-1.875-1.875s.84-1.875 1.875-1.875 1.875.84 1.875 1.875-.839 1.875-1.875 1.875zm2-8c-1.035 0-1.875-.84-1.875-1.875s.84-1.875 1.875-1.875 1.875.84 1.875 1.875-.839 1.875-1.875 1.875zm2.125-7.875c0-1.035.84-1.875 1.875-1.875s1.875.84 1.875 1.875-.84 1.875-1.875 1.875-1.875-.84-1.875-1.875zm3.875 17.875c-1.035 0-1.875-.84-1.875-1.875s.84-1.875 1.875-1.875 1.875.84 1.875 1.875-.839 1.875-1.875 1.875zm2-8c-1.035 0-1.875-.84-1.875-1.875s.84-1.875 1.875-1.875 1.875.84 1.875 1.875-.839 1.875-1.875 1.875zm3.125-6.875c0-1.035.84-1.875 1.875-1.875s1.875.84 1.875 1.875-.84 1.875-1.875 1.875-1.875-.84-1.875-1.875zm3.875 11.875c-1.035 0-1.875-.84-1.875-1.875s.84-1.875 1.875-1.875 1.875.84 1.875 1.875-.839 1.875-1.875 1.875zm5-5c-1.035 0-1.875-.84-1.875-1.875s.84-1.875 1.875-1.875 1.875.84 1.875 1.875-.839 1.875-1.875 1.875z" fill="#6856e8"/><path d="M.963 17.184s1.813 11.65 25.396 12.4 43.096-8.833 46.381-18.75c0 0 1.131 3.667 0 7.167S61.523 35.666 26.274 34 .963 17.184.963 17.184z" fill="#4f35bc"/><path d="M.316 19.834s-.008.083.012.241c.01.159.04.393.114.691.045.306.204.655.345 1.075.214.39.393.874.748 1.327.602.979 1.642 1.927 2.897 2.888 1.329.873 2.907 1.736 4.748 2.407 1.826.706 3.89 1.241 6.091 1.682l3.411.565 3.596.38c1.218.148 2.472.142 3.732.222l3.832.105 3.897-.02c1.282.008 2.612-.132 3.92-.19l3.922-.267 3.855-.463c1.278-.138 2.521-.462 3.763-.679l1.846-.362 1.784-.498c2.376-.604 4.601-1.431 6.668-2.296l2.936-1.436 2.602-1.597c1.6-1.128 2.99-2.273 4.089-3.427l1.465-1.683.604-.787.487-.762c.628-.961.989-1.794 1.227-2.36.228-.571.306-.893.306-.893s-.066.323-.274.904c-.218.575-.552 1.425-1.149 2.413l-.465.785-.582.815c-.382.586-.893 1.14-1.42 1.751-1.068 1.208-2.437 2.42-4.045 3.588-.795.596-1.707 1.09-2.606 1.671-.917.555-1.938.99-2.947 1.515-2.077.918-4.316 1.809-6.72 2.424l-1.803.516-1.862.378-3.801.711-3.902.494c-1.309.195-2.62.188-3.934.291l-3.948.166-3.92-.006c-1.298.025-2.584-.062-3.855-.131l-3.759-.247-3.622-.421-3.437-.639c-2.217-.489-4.294-1.07-6.134-1.823-1.858-.707-3.438-1.646-4.754-2.581-1.247-1.024-2.267-2.023-2.843-3.038-.344-.47-.51-.968-.71-1.368-.129-.43-.275-.785-.311-1.095-.063-.303-.086-.538-.09-.698-.014-.156-.004-.238-.004-.238zm122.359 8.339c14.199 4.6 32.491 3.99 46.24-1.107 12.811-4.751 1.175-21.919-7.573-26.077-.354-.392-1.006-.689-1.468-.787-8.526-1.8-17.46-.332-24.794 4.371-8.275 5.305-13.131 12.969-17.265 21.778-.701 1.495 2.598 2.217 4.86 1.822zm44.098-12.214c0-1.035.84-1.875 1.875-1.875s1.875.84 1.875 1.875-.84 1.875-1.875 1.875-1.875-.84-1.875-1.875zm-3-7c0-1.035.84-1.875 1.875-1.875s1.875.84 1.875 1.875-.84 1.875-1.875 1.875-1.875-.84-1.875-1.875zm-3.125-3.125c-1.035 0-1.875-.84-1.875-1.875s.84-1.875 1.875-1.875 1.875.84 1.875 1.875-.839 1.875-1.875 1.875zm-2.875 13.125c0-1.035.84-1.875 1.875-1.875s1.875.84 1.875 1.875-.84 1.875-1.875 1.875-1.875-.84-1.875-1.875zm-2-8c0-1.035.84-1.875 1.875-1.875s1.875.84 1.875 1.875-.84 1.875-1.875 1.875-1.875-.84-1.875-1.875zm-2.125-4.125c-1.035 0-1.875-.84-1.875-1.875s.84-1.875 1.875-1.875 1.875.84 1.875 1.875-.839 1.875-1.875 1.875zm-3.875 14.125c0-1.035.84-1.875 1.875-1.875s1.875.84 1.875 1.875-.84 1.875-1.875 1.875-1.875-.84-1.875-1.875zm-2-8c0-1.035.84-1.875 1.875-1.875s1.875.84 1.875 1.875-.84 1.875-1.875 1.875-1.875-.84-1.875-1.875zm-3.125-3.125c-1.035 0-1.875-.84-1.875-1.875s.84-1.875 1.875-1.875 1.875.84 1.875 1.875-.839 1.875-1.875 1.875zm-3.875 8.125c0-1.035.84-1.875 1.875-1.875s1.875.84 1.875 1.875-.84 1.875-1.875 1.875-1.875-.84-1.875-1.875zm-5-5c0-1.035.84-1.875 1.875-1.875s1.875.84 1.875 1.875-.84 1.875-1.875 1.875-1.875-.84-1.875-1.875z" fill="#6856e8"/><path d="M174.314 17.089s-1.791 11.745-25.374 12.495-43.096-8.833-46.381-18.75c0 0-1.131 3.667 0 7.167S113.775 35.666 149.024 34s25.29-16.911 25.29-16.911z" fill="#4f35bc"/><path d="M174.982 19.834s.011.082-.004.241a3.9 3.9 0 0 1-.09.698c-.035.31-.182.665-.311 1.095-.2.4-.366.898-.71 1.368-.576 1.015-1.596 2.014-2.843 3.038-1.315.935-2.896 1.874-4.754 2.581-1.84.753-3.917 1.334-6.134 1.823l-3.437.639-3.622.421c-1.229.156-2.489.159-3.759.247l-3.855.131-3.92.006c-1.338.015-2.629-.115-3.948-.166l-3.933-.291-3.903-.494c-1.295-.148-2.547-.482-3.801-.711l-1.862-.378-1.803-.516c-2.403-.615-4.643-1.506-6.72-2.424l-2.947-1.515-2.606-1.671c-1.608-1.168-2.977-2.38-4.045-3.588l-1.42-1.751-.582-.815-.465-.785c-.598-.988-.932-1.838-1.149-2.413-.208-.581-.274-.904-.274-.904a7.48 7.48 0 0 0 .306.893 14.03 14.03 0 0 0 1.227 2.36l.487.762.604.787c.397.566.924 1.098 1.465 1.683 1.099 1.153 2.489 2.299 4.089 3.427.794.571 1.706 1.042 2.602 1.597.913.528 1.932.939 2.936 1.436 2.067.865 4.292 1.691 6.668 2.296l1.784.498 1.846.362 3.763.679 3.855.463c1.285.187 2.614.17 3.922.267l3.92.19 3.897.02c1.292.034 2.569-.045 3.832-.105l3.732-.222 3.596-.38 3.411-.565c2.201-.44 4.265-.976 6.091-1.682 1.841-.671 3.419-1.534 4.748-2.407 1.256-.961 2.296-1.909 2.897-2.888.355-.453.534-.938.748-1.327.141-.42.3-.77.345-1.075.074-.299.104-.532.114-.691.02-.161.012-.244.012-.244z" fill="#6856e8"/></svg>