<svg xmlns="http://www.w3.org/2000/svg" xmlns:xlink="http://www.w3.org/1999/xlink" width="180.524" height="41.659" xmlns:v="https://vecta.io/nano"><g stroke="#fff" stroke-width=".5" stroke-miterlimit="10"><path d="M35.537 1.077s-22.35 3.85-31.425 21.767c0 0-3.159 8.916-3.242 10.75s21.084 7.583 29.917 7.583 38.583-.667 43.083-9.583 2.167-15.417-2.75-20.25S53.204-2.523 35.537 1.077z" fill="#070711"/><path d="M8.414 16.347s25.836-7.984 23.39 24.827" fill="none"/><path d="M2.02 29.411s22.956 10.814 50.718 4.979c0 0 20.183-4.021 22.553-8.359s-1.285 5.724-2.315 6.744-5.949 8.083-41.052 8.635c0 0-17.828-.552-31.475-7.571 0-.001-1.023-3.164 1.571-4.428z" fill="#070711"/></g><path d="M25.828 5.76s.242-.118.693-.263c.453-.128 1.109-.311 1.92-.393l1.313-.069c.467-.002.961.007 1.467.08 1.017.105 2.079.367 3.117.696l1.5.621 1.393.723 1.237.784 1.04.797c.66.471 1.104.992 1.458 1.3l.528.516-.593-.442-1.562-1.147-1.072-.718-1.248-.711c-.432-.246-.908-.443-1.375-.675-.471-.224-.979-.379-1.47-.574-.999-.34-2.024-.617-3.008-.739L29.745 5.4c-.454-.034-.886-.021-1.283-.014a13.64 13.64 0 0 0-1.918.206l-.716.168zm3-2s.242-.118.693-.263c.453-.128 1.109-.311 1.92-.393l1.313-.069c.467-.002.961.007 1.467.08 1.017.105 2.079.367 3.117.696l1.5.621 1.393.723 1.237.784 1.04.797c.66.471 1.104.992 1.458 1.3l.528.516-.593-.442-1.562-1.147-1.072-.718-1.248-.711c-.432-.246-.908-.443-1.375-.675-.471-.224-.979-.379-1.47-.574-.999-.34-2.024-.617-3.008-.739L32.745 3.4c-.454-.034-.886-.021-1.283-.014a13.64 13.64 0 0 0-1.918.206l-.716.168z" fill="#fff"/><g stroke="#fff" stroke-width=".5" stroke-miterlimit="10"><path d="M144.988 1.077s22.35 3.85 31.425 21.767c0 0 3.159 8.916 3.242 10.75s-21.084 7.583-29.917 7.583-38.583-.667-43.083-9.583-2.167-15.417 2.75-20.25 17.916-13.867 35.583-10.267z" fill="#070711"/><path d="M172.111 16.347s-25.836-7.984-23.39 24.827" fill="none"/><path d="M178.504 29.411s-22.956 10.814-50.718 4.979c0 0-20.183-4.021-22.553-8.359s1.285 5.724 2.315 6.744 5.949 8.083 41.052 8.635c0 0 17.828-.552 31.475-7.571.001-.001 1.023-3.164-1.571-4.428z" fill="#070711"/></g><g fill="#fff"><use xlink:href="#B"/><use xlink:href="#B" x="-3" y="-2"/></g><defs ><path id="B" d="M154.697 5.76s-.259-.077-.717-.169a13.64 13.64 0 0 0-1.918-.206c-.397-.008-.829-.021-1.283.014l-1.422.146c-.983.122-2.009.399-3.008.739l-1.47.574-1.374.675-1.249.711-1.071.718c-.678.429-1.182.871-1.562 1.147l-.593.442.528-.516c.354-.308.798-.829 1.458-1.3l1.04-.797 1.236-.784c.437-.262.919-.475 1.394-.723.479-.238.997-.411 1.499-.621 1.038-.329 2.1-.591 3.116-.696.506-.073 1-.082 1.468-.08.467-.005.908.036 1.313.069.811.082 1.467.265 1.92.393.453.146.695.264.695.264z"/></defs></svg>