<svg xmlns="http://www.w3.org/2000/svg" xmlns:xlink="http://www.w3.org/1999/xlink" width="177.658" height="43.188" xmlns:v="https://vecta.io/nano"><style><![CDATA[.E{stroke:#070711}.F{stroke-width:.5}.G{stroke-miterlimit:10}]]></style><g fill="#fff" class="E F G"><path d="M32.898 1.823S9.982 6.173 3.565 15.007 2.023 30.925 2.023 33.341s18.792 12.748 47.625 8.082c0 0 13.749-1.582 22.333-8.499 0 0 3.25-6.333 3.417-10.333s-1.917-10.001-1.917-11.084S66.564.09 43.731.257c0 0-1.333-.201-10.833 1.566z"/><path d="M36.731 40.341c20.271-.244 36.995-11.334 36.995-11.334.5 1.916-1.578 4.5-1.578 4.5-10.667 8.833-29.5 9.111-29.5 9.111-32.75 2.277-40.625-8.361-41.167-9.111s-.241-3.205-.241-3.205 7.741 10.373 35.491 10.039z"/></g><path d="M26.215 39.908s5.015-12.318-6.901-19.651c0 0-6.166-3.929-17.666-2.006" fill="none" class="E F G"/><g fill="#070711"><use xlink:href="#B"/><use xlink:href="#B" x="5" y="-3"/><path d="M30.964 2.48s1.314-.521 3.381-.997c1.035-.221 2.254-.463 3.584-.553a18.94 18.94 0 0 1 2.055-.081c.703-.034 1.415.078 2.131.113l2.119.362 1.02.294.501.15.472.21c.608.313 1.235.543 1.724.952.5.38 1.021.674 1.373 1.102l1.008 1.085.613.957.496.842-.084.055-.69-.681-.755-.784-1.104-.863c-.37-.352-.89-.574-1.37-.893-.477-.331-1.053-.55-1.624-.816l-.429-.212-.461-.157-.936-.331c-.64-.196-1.313-.335-1.982-.479-.683-.067-1.36-.216-2.043-.218l-2-.027c-.651-.002-1.277.074-1.875.114l-1.676.203c-2.072.325-3.413.747-3.413.747l-.035-.094z"/></g><g fill="#fff" class="E F G"><path d="M144.76 1.823s22.916 4.35 29.332 13.184 1.543 15.918 1.543 18.334-18.793 12.748-47.625 8.082c0 0-13.75-1.582-22.333-8.499 0 0-3.25-6.333-3.417-10.333s1.917-10.001 1.917-11.084S111.094.09 133.927.257c-.001 0 1.333-.201 10.833 1.566z"/><path d="M140.926 40.341c-20.27-.244-36.995-11.334-36.995-11.334-.5 1.916 1.578 4.5 1.578 4.5 10.667 8.833 29.5 9.111 29.5 9.111 32.75 2.277 40.625-8.361 41.166-9.111s.242-3.205.242-3.205-7.741 10.373-35.491 10.039z"/></g><path d="M151.441 39.908s-5.014-12.318 6.902-19.651c0 0 6.166-3.929 17.666-2.006" fill="none" class="E F G"/><g fill="#070711"><use xlink:href="#C"/><use xlink:href="#C" x="-5" y="-3"/><path d="M146.66 2.574s-1.342-.422-3.414-.747l-1.676-.203-1.875-.114c-.65-.034-1.32-.013-2 .027-.682.002-1.359.15-2.043.218l-1.98.479-.938.331-.461.156-.428.213c-.572.267-1.148.485-1.625.816-.48.318-1 .541-1.369.893l-1.105.863-.754.784-.691.681-.084-.055.496-.842.613-.957 1.008-1.085c.354-.428.873-.722 1.373-1.102.488-.409 1.115-.64 1.725-.952l.471-.21.502-.15 1.02-.294c.691-.162 1.41-.261 2.119-.362l2.131-.113 2.055.081c1.33.09 2.549.332 3.584.553 2.066.477 3.381.997 3.381.997l-.035.094z"/></g><defs ><path id="B" d="M18.965 7.96s1.314-.521 3.38-.997c1.035-.221 2.255-.463 3.584-.553a18.93 18.93 0 0 1 2.055-.081c.703-.034 1.415.078 2.131.113l2.118.362 1.02.294.501.15.472.21c.608.313 1.235.543 1.723.952.5.38 1.021.674 1.373 1.102l1.008 1.085.613.957.496.842-.084.055-.69-.681-.755-.784-1.105-.863c-.369-.352-.89-.574-1.37-.893-.477-.331-1.053-.55-1.625-.816l-.428-.213-.461-.156-.936-.331c-.639-.196-1.312-.335-1.981-.479-.683-.067-1.361-.216-2.043-.218l-2-.027c-.651-.002-1.277.074-1.875.114l-1.676.203c-2.072.325-3.413.747-3.413.747l-.032-.094z"/><path id="C" d="M158.659 8.054s-1.341-.422-3.413-.747l-1.676-.203-1.875-.114c-.65-.034-1.32-.013-2 .027-.682.002-1.36.15-2.043.218l-1.981.479-.937.331-.46.157-.429.212c-.571.267-1.147.485-1.624.816-.48.318-1 .541-1.37.893l-1.104.863-.755.784-.69.681-.084-.055.496-.842.613-.957 1.008-1.085c.353-.428.873-.722 1.373-1.102.488-.409 1.114-.639 1.723-.952l.473-.21.501-.15 1.02-.294c.692-.162 1.409-.261 2.118-.362l2.131-.113 2.055.081c1.33.09 2.55.332 3.584.553 2.066.477 3.381.997 3.381.997l-.035.094z"/></defs></svg>