<svg xmlns="http://www.w3.org/2000/svg" width="146.167" height="43.111" xmlns:v="https://vecta.io/nano"><path d="M3.499 2.368C-.876 11.287.352 21.877 6.334 29.725c5.521 7.243 14.254 11.557 23.248 12.361 8.917.797 18.132-1.759 25.055-7.515 6.556-5.45 10.568-13.586 10.122-22.18-2.148 1.267-4.81 1.576-7.254 1.692-3.461.165-6.94-.144-10.369-.593-8.192-1.075-16.271-3.029-24.233-5.206C16.38 6.5 9.91 4.518 3.499 2.368c-1.711 3.488 12.459 4.178 0 0z" fill="#84efe9"/><g fill="#282828"><path d="M1.683 7.969c-.28 1.371-.396 2.765-.498 4.155-.182 4.116.604 8.113 2.248 11.902 2.881 6.642 8.813 11.949 15.354 14.857 6.331 2.815 13.935 4.06 20.803 2.525 4.258-.951 8.367-2.41 11.996-4.875 4.034-2.742 7.46-6.313 9.727-10.65 2.164-4.14 3.207-8.8 2.972-13.479l.717.397c-4.327 2.477-10.224 2.021-14.984 1.543-5.37-.539-10.71-1.526-15.958-2.776C23.72 9.107 13.538 6.002 3.53 2.43c-.395 1.039-1.45 3.62-1.847 5.539zm1.832-5.648c10.508 3.282 21.128 6.31 31.908 8.56 4.605.961 9.23 1.865 13.916 2.339 5.235.564 11.112 1.031 15.866-1.623.176 4.691-.515 9.541-2.759 13.729-2.329 4.346-5.559 8.177-9.69 10.925-6.198 4.123-13.566 6.377-21.031 6.143-4.315-.135-8.58-.853-12.592-2.513-3.286-1.36-6.708-3.184-9.278-5.705-2.514-2.466-4.689-5.064-6.336-8.193C1.379 21.918.33 17.249.637 12.657c.105-1.571.36-3.065.669-4.604.151-.753.454-1.502.689-2.234.353-1.094.824-2.661 1.52-3.498z"/><path d="M29.956 10.116c-.547 2.506-.932 5.322-.963 7.756.077 5.969 2.254 14.244 3.822 14.545 1.566-.301 3.745-8.576 3.822-14.545-.025-1.994-.289-4.242-.683-6.369l-5.998-1.387z"/></g><path d="M140.132 2.368c4.375 8.919 3.147 19.509-2.835 27.357-5.521 7.243-14.254 11.557-23.248 12.361-8.917.797-18.132-1.759-25.055-7.515-6.556-5.45-10.568-13.586-10.122-22.18 2.148 1.267 4.81 1.576 7.254 1.692 3.461.165 6.94-.144 10.369-.593 8.192-1.075 16.271-3.029 24.233-5.206 6.523-1.784 12.993-3.766 19.404-5.916 1.711 3.488-12.459 4.178 0 0z" fill="#84efe9"/><g fill="#282828"><path d="M140.178 2.349c.775 1.821 1.635 3.608 2.114 5.54.345 1.385.515 2.79.664 4.203.29 4.216-.396 8.342-2.045 12.25-2.851 6.752-8.823 12.399-15.568 15.19-6.486 2.684-14.286 3.855-21.245 2.224-4.086-.958-8.054-2.242-11.638-4.475-4.2-2.617-7.987-6.115-10.442-10.458-2.671-4.724-3.795-9.791-3.592-15.226 4.754 2.654 10.631 2.187 15.866 1.623 4.686-.474 9.311-1.378 13.916-2.339 4.877-1.018 9.716-2.199 14.526-3.494l9.087-2.573 4.53-1.338 2.26-.688c.235-.073 1.433-.575 1.567-.439zm-30.605 9.22c-5.248 1.25-10.588 2.237-15.958 2.776-4.761.478-10.657.934-14.984-1.543l.717-.397c-.517 10.287 5.131 19.324 13.632 24.745 5.939 3.788 13.05 5.133 19.99 4.751 7.6-.418 15.368-3.71 20.846-9.017 2.936-2.845 5.272-6.072 6.808-9.884 1.549-3.844 1.993-7.792 1.78-11.88-.159-3.039-1.238-5.881-2.301-8.689-2.458.878-20.19 6.676-30.53 9.138z"/><path d="M113.675 10.116c.547 2.506.932 5.322.963 7.756-.077 5.969-2.254 14.244-3.822 14.545-1.566-.301-3.745-8.576-3.822-14.545.025-1.994.289-4.242.683-6.369l5.998-1.387z"/></g><g fill="#bbf9e0"><ellipse cx="50.654" cy="20.897" rx="5.339" ry="4.996" opacity=".5"/><ellipse cx="132.654" cy="20.897" rx="5.339" ry="4.996" opacity=".5"/></g></svg>