<svg xmlns="http://www.w3.org/2000/svg" width="166" height="72.333" xmlns:v="https://vecta.io/nano"><path d="M72 36.34c0 9.032-3.482 17.874-9.704 24.43-6.139 6.469-14.666 10.398-23.586 10.757-8.981.36-17.852-2.888-24.504-8.927C7.569 56.576 3.437 48.089 2.74 39.158c-.707-9.072 2.102-18.228 7.863-25.282 5.605-6.864 13.76-11.438 22.57-12.503a34.53 34.53 0 0 1 25.25 7.022c7.021 5.475 11.767 13.577 13.144 22.369A36.03 36.03 0 0 1 72 36.34z" fill="#84efe9"/><g fill="#282828"><path d="M72.05 36.341c-.226 5.068-.943 10.038-3.081 14.697-2.362 5.149-5.658 9.718-10.063 13.322-9.142 7.48-22.024 9.587-33.086 5.49-9.69-3.589-17.394-11.314-21.074-20.976C.347 37.33 2.249 23.925 9.844 14.159c2.712-3.487 5.989-6.277 9.704-8.615C24.87 2.193 30.893.953 37.079.621c4.613-.248 9.538.998 13.744 2.798 5.102 2.183 9.563 5.586 13.07 9.883 2.866 3.512 4.861 7.452 6.356 11.711 1.288 3.663 1.63 7.48 1.801 11.328zm-.1-.003c-.277-4.958-1.046-9.703-3.1-14.268-2.308-5.132-5.952-9.654-10.373-13.122-8.175-6.413-19.34-8.859-29.42-6.255-10.218 2.64-18.795 9.89-23.07 19.558C.965 33.609 2.213 47.313 9.693 57.319c2.55 3.41 5.687 6.442 9.338 8.649 2.615 1.528 5.27 2.807 8.175 3.704 3.026.935 6.089 1.285 9.239 1.425 11.341.504 22.566-5.565 29.074-14.704 2.215-3.109 3.9-6.547 4.968-10.213.946-3.243 1.28-6.484 1.463-9.842z"/><ellipse cx="37.315" cy="34.34" rx="30.935" ry="31.407"/></g><g fill="#fff"><ellipse cx="45.681" cy="15.354" rx="6.861" ry="6.998"/><ellipse cx="56.353" cy="25.75" rx="3.532" ry="3.603"/></g><path d="M164 36.34c0 9.032-3.482 17.874-9.704 24.43-6.139 6.469-14.666 10.398-23.586 10.757-8.981.36-17.852-2.888-24.505-8.927-6.636-6.024-10.769-14.511-11.465-23.442-.707-9.072 2.102-18.228 7.862-25.282 5.606-6.864 13.76-11.438 22.571-12.503a34.53 34.53 0 0 1 25.25 7.022c7.021 5.475 11.767 13.577 13.144 22.369A36.03 36.03 0 0 1 164 36.34z" fill="#84efe9"/><g fill="#282828"><path d="M164.05 36.341c-.226 5.068-.943 10.038-3.081 14.697-2.362 5.149-5.658 9.718-10.063 13.322-9.142 7.48-22.024 9.587-33.087 5.49-9.69-3.589-17.393-11.314-21.073-20.976-4.398-11.545-2.496-24.95 5.099-34.716 2.712-3.487 5.989-6.276 9.704-8.615C116.87 2.192 122.894.952 129.08.62c4.613-.248 9.538.998 13.744 2.798 5.102 2.183 9.563 5.586 13.07 9.883 2.866 3.512 4.861 7.452 6.356 11.711 1.287 3.664 1.629 7.481 1.8 11.329zm-.1-.003c-.277-4.958-1.046-9.703-3.1-14.268-2.308-5.132-5.952-9.654-10.373-13.122-8.175-6.413-19.34-8.86-29.42-6.255-10.218 2.64-18.796 9.89-23.07 19.559-5.022 11.358-3.774 25.06 3.706 35.068 2.549 3.41 5.687 6.441 9.338 8.649 2.615 1.528 5.269 2.807 8.175 3.704 3.026.935 6.089 1.285 9.239 1.425 11.341.504 22.566-5.565 29.074-14.704 2.215-3.109 3.9-6.547 4.968-10.213.946-3.244 1.28-6.485 1.463-9.843z"/><ellipse cx="129.315" cy="34.34" rx="30.935" ry="31.407"/></g><g fill="#fff"><ellipse cx="137.681" cy="15.354" rx="6.861" ry="6.998"/><ellipse cx="148.352" cy="25.75" rx="3.532" ry="3.603"/></g></svg>