<svg xmlns="http://www.w3.org/2000/svg" width="149.679" height="58.334" xmlns:v="https://vecta.io/nano"><path d="M63.857 29.404c0 8.9-4.803 17.139-12.154 22.029-7.76 5.162-17.826 6.351-26.622 3.323C16.76 51.892 9.836 45.25 7.275 36.75c-2.577-8.558-.351-17.909 5.548-24.57 6.104-6.895 15.381-10.37 24.511-9.692 8.963.665 17.506 5.389 22.402 12.997 2.664 4.139 4.121 8.993 4.121 13.919z" fill="#84efe9"/><path d="M63.907 29.406c-.241 4.99-1.356 9.68-3.994 13.987-2.92 4.769-7.338 8.517-12.427 10.797-10.404 4.663-23.143 2.903-31.802-4.563-4.53-3.905-7.878-9.11-9.136-14.991-1.314-6.144-.374-12.521 2.654-18.026C15.077 5.928 27.759.411 39.649 2.249c6.92 1.07 13.433 4.558 17.946 9.941 2.221 2.648 3.855 5.684 4.963 8.952.919 2.707 1.216 5.427 1.349 8.264zm-.099-.003c-.329-5.359-1.675-10.273-4.854-14.684-3.275-4.542-8.032-7.942-13.267-9.869C34.421.702 21.261 3.552 13.152 12.528c-8.238 9.118-8.878 23.248-1.129 32.887 7.18 8.932 19.397 12.393 30.368 9.614 6.014-1.523 11.624-4.836 15.583-9.652a25.91 25.91 0 0 0 4.482-8.024c.89-2.598 1.188-5.228 1.352-7.95z" fill="#282828"/><path d="M59.461 14.623c-.245-.518-.671-1.232-1.259-2.127l-1.043-1.434-1.365-1.595c-1.053-1.062-2.275-2.266-3.807-3.33-1.515-1.084-3.266-2.128-5.242-2.976-1.972-.855-4.166-1.505-6.482-1.887-1.137-.186-2.408-.276-3.586-.327L34.891.943l-1.829.144c-1.227.047-2.437.341-3.658.525-.613.082-1.202.298-1.805.441l-1.786.513c-1.157.447-2.349.799-3.44 1.379l-1.657.804-1.57.941-.778.468-.73.535-1.443 1.063-1.328 1.17-1.259 1.202-2.212 2.566-.979 1.314-.832 1.366c-1.086 1.802-1.844 3.648-2.42 5.378-.377 1.233-.662 2.406-.853 3.515-.749.188-2.132.367-2.669-.341-.779-1.03 1.037 2.771 2.037 3.231v.053c-1 .485-3.461 1.69-4.588-.177-1.35-2.234 1.662 5.1 5.088 5.614.001.013.04.033.04.033l.318-.02-.085-3.246.158-1.722.084-.977.195-1.017c.225-1.397.67-2.954 1.279-4.594.654-1.623 1.48-3.335 2.613-4.979l.861-1.245c.303-.411.655-.793.984-1.197.639-.829 1.422-1.558 2.193-2.315.371-.396.809-.726 1.234-1.072l1.293-1.036 1.397-.928.702-.468.748-.4 1.498-.807 1.574-.672c1.033-.492 2.158-.759 3.239-1.125.545-.173 1.116-.25 1.672-.38.562-.101 1.107-.275 1.678-.316 1.133-.108 2.247-.314 3.374-.275l1.672-.022 1.68.084 3.176.405c2.093.34 4.075.873 5.921 1.502 1.835.658 3.507 1.464 5.007 2.294 1.507.83 2.787 1.762 3.922 2.605l2.768 2.423.967.979.686.758.577.637.252-.162c0 .004-.137-.265-.396-.769z" fill="#3f3f3f"/><path d="M40.638 29.402c-.123 6.465-3.572 15.43-6.051 15.756-2.484-.326-5.93-9.291-6.053-15.756.123-6.463 3.568-15.432 6.053-15.754 2.483.327 5.928 9.291 6.051 15.754z" fill="#282828"/><path d="M85.761 28.404c0 8.9 4.803 17.139 12.154 22.029 7.76 5.162 17.825 6.351 26.621 3.323 8.321-2.865 15.245-9.507 17.806-18.007 2.577-8.558.351-17.909-5.547-24.57-6.104-6.895-15.382-10.37-24.512-9.692-8.963.665-17.505 5.389-22.401 12.997-2.664 4.14-4.121 8.994-4.121 13.92z" fill="#84efe9"/><path d="M85.811 28.403c.322 5.362 1.668 10.279 4.847 14.691 3.275 4.546 8.029 7.954 13.259 9.903 10.623 3.96 23.068 1.886 31.326-6.028 4.32-4.139 7.07-9.669 7.73-15.615.672-6.054-.971-12.088-4.37-17.112-6.755-9.985-19.841-14.271-31.361-11.409-6.02 1.495-11.627 4.793-15.588 9.603a25.87 25.87 0 0 0-4.483 8.02c-.893 2.598-1.193 5.225-1.36 7.947zm-.1.003c.234-4.993 1.349-9.686 3.986-13.995 2.921-4.773 7.335-8.526 12.419-10.827C113.027-1.354 126.4.692 135.173 8.896c4.449 4.162 7.414 9.707 8.248 15.752.852 6.168-.621 12.405-3.945 17.65-6.168 9.732-18.195 14.871-29.507 13.188-6.915-1.029-13.427-4.506-17.938-9.875-2.223-2.646-3.854-5.68-4.965-8.946-.92-2.705-1.221-5.425-1.355-8.259z" fill="#282828"/><path d="M90.157 13.623c.245-.518.672-1.232 1.258-2.127l1.045-1.434 1.364-1.595c1.053-1.062 2.275-2.266 3.808-3.33 1.514-1.084 3.264-2.128 5.242-2.976 1.971-.855 4.165-1.505 6.482-1.887 1.135-.186 2.407-.276 3.584-.327l1.787-.004 1.829.144c1.227.047 2.437.341 3.657.525.614.082 1.203.298 1.805.441l1.787.513c1.156.447 2.348.799 3.441 1.379l1.656.804 1.57.941.778.468.729.535 1.444 1.063 1.329 1.17 1.258 1.202 2.211 2.566.979 1.314.833 1.366c1.086 1.802 1.844 3.648 2.42 5.378.376 1.233.662 2.406.852 3.515.749.188 2.002.367 2.538-.341.78-1.03-1.167 2.771-2.167 3.231v.053c1 .485 3.592 1.69 4.719-.177 1.35-2.234-1.597 5.1-5.022 5.614-.002.013-.009.033-.009.033l-.301-.02.092-3.246-.153-1.722-.083-.977-.193-1.017c-.225-1.397-.67-2.954-1.279-4.594-.653-1.623-1.479-3.335-2.613-4.979l-.861-1.245c-.303-.411-.654-.793-.984-1.197-.638-.829-1.42-1.558-2.193-2.315-.369-.396-.808-.726-1.234-1.072L132.27 8.26l-1.397-.928-.701-.468-.748-.4-1.5-.807-1.573-.672c-1.033-.492-2.157-.759-3.239-1.125-.545-.173-1.117-.25-1.672-.38-.562-.101-1.107-.275-1.678-.316-1.133-.108-2.248-.314-3.374-.275l-1.671-.022-1.681.084-3.176.405c-2.093.34-4.075.873-5.921 1.502-1.836.658-3.506 1.464-5.008 2.294s-2.786 1.762-3.92 2.605l-2.768 2.423-.968.979-.686.758-.577.637-.252-.162c.001.004.138-.265.397-.769z" fill="#3f3f3f"/><path d="M108.981 28.402c.123 6.465 3.572 15.43 6.051 15.756 2.484-.326 5.929-9.291 6.052-15.756-.123-6.463-3.567-15.432-6.052-15.754-2.484.327-5.928 9.291-6.051 15.754z" fill="#282828"/><g fill="#bbf9e0"><ellipse cx="39.662" cy="14.801" rx="7.352" ry="6.881" opacity=".5"/><ellipse cx="49.166" cy="26.801" rx="5.339" ry="4.996" opacity=".5"/><ellipse cx="121.662" cy="14.801" rx="7.352" ry="6.881" opacity=".5"/><ellipse cx="131.166" cy="26.801" rx="5.339" ry="4.996" opacity=".5"/></g></svg>