<svg xmlns="http://www.w3.org/2000/svg" width="205.3" height="77.39" xmlns:v="https://vecta.io/nano"><path d="M196.15 3.134s-16.479-3.757-38.484-1.867c-9.313.799-33.281 4.117-39.289 6.937-4.5 2.111-12.257 3.188-15.867 3.596-3.61-.407-11.367-1.484-15.867-3.596-6.008-2.819-29.977-6.138-39.289-6.937C25.348-.623 8.869 3.134 8.869 3.134S-1.298 7.3 1.773 27.916s2.192 40.575 34.871 46.935S81.923 62.35 83.409 60.376c0 0 12.616-20.498 13.967-29.207.891-5.745 3.339-7.083 5.134-7.367 1.795.284 4.243 1.622 5.134 7.367 1.351 8.709 13.967 29.207 13.967 29.207 1.485 1.974 14.086 20.835 46.765 14.475s31.801-26.318 34.871-46.935-7.097-24.782-7.097-24.782z" fill="#27e272"/><path d="M45.848 7.211S17.621 4.926 11.451 18.754s.457 28.683 2.057 32.797 7.657 18.513 29.827 19.085S77.046 60.238 81.96 49.153s7.771-22.056 2.515-30.284S67.332 8.011 45.848 7.211z" fill="#111"/><path d="M10.084 41.266l44.86-33.545-9.097-.51-.661-.042L8.958 33.956c.175 2.604.597 5.069 1.126 7.31zM60.113 8.203L11.754 46.95l1.753 4.601c.462 1.188 1.3 3.234 2.784 5.557L73.307 10.9c-3.615-1.235-7.981-2.099-13.194-2.697z" opacity=".8" fill="#fff"/><path d="M159.172 7.211s28.227-2.285 34.397 11.543-.457 28.683-2.057 32.797-7.657 18.513-29.827 19.085-33.711-10.398-38.625-21.483-7.771-22.056-2.515-30.284 17.143-10.858 38.627-11.658z" fill="#111"/><path d="M142.304 8.54l-24.388 17.906c-.316 2.617-.167 5.38.352 8.243l36.756-27.292c-4.749.249-8.969.616-12.72 1.143zm19.352-1.444L119.64 40.19c.91 2.944 2.084 5.947 3.421 8.962l.868 1.812 53.434-42.57c-6.16-1.311-12.375-1.385-15.707-1.298z" opacity=".8" fill="#fff"/></svg>