<svg xmlns="http://www.w3.org/2000/svg" xmlns:xlink="http://www.w3.org/1999/xlink" width="150" height="55.778" xmlns:v="https://vecta.io/nano"><path d="M64 29.079c0 8.719-5.038 16.501-12.152 21.258-7.988 5.342-18.213 6.959-27.551 4.918-8.643-1.889-16.807-7.11-21.028-15.045-4.041-7.592-3.601-16.765 1.014-24C14.535.135 38.983-2.2 53.571 9.059 59.785 13.855 64 21.118 64 29.079z" fill="#84efe9"/><g fill="#282828"><path d="M64.05 29.081c-.255 4.731-1.354 9.055-3.88 13.12-2.969 4.777-7.467 8.518-12.521 10.924-10.041 4.781-22.189 4.416-31.997-.779-4.954-2.625-9.229-6.463-12.101-11.305C.466 35.838-.519 29.538.805 23.647 3.384 12.168 13.984 4.351 25.123 2.229c9.483-1.807 19.725.042 27.585 5.783 3.674 2.684 6.74 6.173 8.757 10.263 1.704 3.456 2.384 6.991 2.585 10.806zm-.1-.003c-.327-4.907-1.543-9.358-4.406-13.43-3.258-4.632-7.99-8.097-13.19-10.264C35.578.893 22.561 1.802 12.782 8.314c-4.615 3.074-8.565 7.529-10.509 12.769-2.118 5.711-2.009 12.075.482 17.659 2.271 5.092 6.354 9.292 11.105 12.134 4.64 2.774 9.697 4.066 15.021 4.696 4.266.505 8.865-.093 12.984-1.218 4.185-1.143 8.175-3.025 11.643-5.641 3.398-2.563 6.233-5.854 8.108-9.687 1.548-3.163 2.108-6.473 2.334-9.948z"/><use xlink:href="#B"/></g><path d="M150 29.079c0 8.719-5.038 16.501-12.152 21.258-7.988 5.342-18.213 6.959-27.551 4.918-8.643-1.889-16.807-7.111-21.028-15.045-4.041-7.592-3.601-16.765 1.014-24C100.536.135 124.984-2.2 139.572 9.059 145.785 13.855 150 21.118 150 29.079z" fill="#84efe9"/><g fill="#282828"><path d="M150.05 29.081c-.255 4.731-1.354 9.055-3.88 13.12-2.969 4.777-7.467 8.518-12.521 10.924-10.041 4.781-22.189 4.416-31.997-.779-4.954-2.625-9.229-6.463-12.101-11.305-3.085-5.203-4.07-11.503-2.746-17.394 2.579-11.478 13.18-19.295 24.318-21.417 9.483-1.807 19.725.042 27.585 5.783 3.674 2.684 6.74 6.173 8.757 10.263 1.704 3.455 2.384 6.99 2.585 10.805zm-.1-.003c-.327-4.907-1.543-9.358-4.406-13.43-3.258-4.632-7.99-8.097-13.19-10.264-10.776-4.491-23.793-3.582-33.572 2.93-4.616 3.074-8.565 7.528-10.509 12.769-2.118 5.711-2.009 12.075.482 17.659 2.271 5.092 6.354 9.292 11.105 12.134 4.64 2.774 9.697 4.066 15.021 4.696 4.266.505 8.865-.093 12.984-1.218 4.185-1.143 8.175-3.025 11.643-5.641 3.398-2.563 6.233-5.854 8.108-9.687 1.548-3.163 2.108-6.473 2.334-9.948z"/><use xlink:href="#B" x="86"/></g><g fill="#bbf9e0"><ellipse cx="41.983" cy="14.946" rx="7.352" ry="6.881" opacity=".5"/><ellipse cx="51.487" cy="26.946" rx="5.339" ry="4.996" opacity=".5"/><ellipse cx="126.983" cy="14.946" rx="7.352" ry="6.881" opacity=".5"/><ellipse cx="136.487" cy="26.946" rx="5.339" ry="4.996" opacity=".5"/></g><defs ><path id="B" d="M36.601 28.737c-.089 9.199-2.581 21.955-4.372 22.42-1.795-.465-4.284-13.221-4.373-22.42.089-9.195 2.578-21.957 4.373-22.416 1.794.463 4.283 13.221 4.372 22.416z"/></defs></svg>