<svg xmlns="http://www.w3.org/2000/svg" width="198.333" height="111.573" xmlns:v="https://vecta.io/nano"><style><![CDATA[.J{fill:#6ece74}.K{fill:#917a5d}.L{fill:#725c44}.M{fill:#80f98c}.N{fill:#f4f471}.O{fill:#e8cb4f}.P{stroke-miterlimit:10}]]></style><g fill="#fcfbd0" stroke="#070711" stroke-width=".5" class="P"><path d="M2.63 56.182s18.982-1.725 25.827 16.514l21.876-60.354s.961-14.508-14.145-10.508S-.561 37.445 2.63 56.182zm193.398 0s-18.982-1.725-25.827 16.514l-21.876-60.354s-.961-14.508 14.145-10.508 36.749 35.611 33.558 54.348z"/><path d="M158.691 6.769c-1.558-2.893-25.367 0-25.367 0L99.71 35.077 66.406 6.769s-23.81-2.893-25.367 0-22.252 36.938-12.401 81.098c0 0 18.986 19.256 69.188 19.583a306.99 306.99 0 0 0 2.961.013c50.896-.093 70.205-19.596 70.205-19.596 9.849-44.16-10.743-78.206-12.301-81.098z"/></g><path d="M66.406 6.769l-4.343 11.084 22.202 4.999-4.846 6.134 20.291 6.186m33.655-28.403l4.344 11.084-22.47 4.999 5.113 6.134-20.642 6.186s4.346 17.502.109 72.29" stroke="#070711" stroke-width=".5" fill="none" class="P"/><path d="M29.149 10.496c-.32.141-.583.307-.82.483l.048-.08c1.126-2.093 3.782-1.131 3.777-.958.302-.066-2.968-2.419-5.325.594-.266.349-.445.691-.574 1.023a4.17 4.17 0 0 0-1.135-.297c-3.806-.393-4.381 3.594-4.124 3.422-.128-.116 1.023-2.697 3.312-2.054.29.045.546.127.775.231-.541.128-1.107.414-1.672.933-2.773 2.635-.119 5.665-.082 5.358-.171.021-1.383-2.531.594-3.852.964-.824 2.014-.762 2.857-.599.254.479.438.875.672.963.176.072.338-.012.463-.198.221.039.394-.019.463-.196.029-.064.033-.146.025-.238.247-.817.205-2.627 1.924-3.463 2-1.283 3.854.849 3.768.997.295.088-1.42-3.558-4.946-2.069z" class="J"/><path d="M30.199 18.732c1.538 3.174 2.005 5.391.794 4.752-1.221-.617-1.465-2.631-2.041-4.388-.676-1.754-1.969-3.489-1.683-4.374.265-.892 1.524.82 2.93 4.01z" class="K"/><g class="L"><ellipse transform="matrix(.9204 -.391 .391 .9204 -3.9028 11.596)" cx="26.521" cy="15.381" rx="1.13" ry="1.108"/><ellipse transform="matrix(.9204 -.391 .391 .9204 -3.3997 12.2026)" cx="28.264" cy="14.449" rx="1.031" ry="1.011"/><ellipse transform="matrix(.9205 -.3909 .3909 .9205 -3.8982 12.2765)" cx="28.211" cy="15.715" rx="1.087" ry="1.066"/></g><path d="M114.583 92.008c-.254-.144-.496-.237-.733-.309.026-.001.051-.006.078-.008 1.96-.293 2.644 1.963 2.526 2.046.195.169.135-3.19-3.057-3.263a3.53 3.53 0 0 0-.97.128c-.072-.288-.186-.59-.368-.906-1.639-2.738-4.59-1.132-4.346-1.046.014-.143 2.313-.663 3.026 1.187a2.46 2.46 0 0 1 .232.634c-.356-.297-.829-.533-1.458-.651-3.146-.537-3.845 2.75-3.621 2.621-.1-.104 1-2.188 2.869-1.527 1.033.233 1.516.965 1.828 1.61-.193.409-.365.729-.308.93.04.154.177.22.363.21.085.167.209.254.362.213.059-.015.115-.053.172-.103.67-.243 1.857-1.176 3.273-.445 1.856.696 1.359 3 1.217 3.016.091.241 1.67-2.726-1.085-4.337z" class="J"/><path d="M109.604 96.822c-1.353 2.612-2.601 4.032-2.779 2.903-.197-1.124 1.026-2.292 1.913-3.555.834-1.328 1.349-3.059 2.081-3.31.729-.267.213 1.429-1.215 3.962z" class="K"/><g class="L"><ellipse transform="matrix(.8642 .5031 -.5031 .8642 61.5683 -42.7595)" cx="110.007" cy="92.691" rx=".942" ry=".924"/><ellipse transform="matrix(.8644 .5028 -.5028 .8644 62.0827 -43.4008)" cx="111.499" cy="93.39" rx=".86" ry=".843"/><ellipse transform="matrix(.8644 .5027 -.5027 .8644 62.2464 -42.8752)" cx="110.627" cy="93.986" rx=".907" ry=".891"/></g><path d="M159.116 65.813a7.71 7.71 0 0 0-1.689.436l.127-.116c3.035-3.117 7.226-.085 7.131.215.564.036-4.006-5.752-9.674-1.637a7.61 7.61 0 0 0-1.524 1.512 7.68 7.68 0 0 0-1.849-1.095c-6.499-2.609-9.521 4.118-8.98 3.945-.166-.268 3.158-4.229 6.863-1.946a5.4 5.4 0 0 1 1.247.797c-1.016-.045-2.156.171-3.412.802-6.209 3.24-3.062 9.91-2.843 9.389-.312-.05-1.16-5.152 2.983-6.481 2.113-.964 3.929-.327 5.334.386.206.97.327 1.759.695 2.031.274.217.602.148.915-.114.369.179.702.165.915-.112.083-.099.13-.241.163-.406.848-1.313 1.685-4.521 5.129-5.126 4.168-1.251 6.358 3.436 6.13 3.651.476.303-.707-6.977-7.661-6.131z" class="J"/><path d="M156.815 80.837c1.109 6.362.814 10.498-.996 8.765-1.838-1.701-1.254-5.369-1.382-8.752-.306-3.427-1.707-7.133-.759-8.547.915-1.437 2.268 2.211 3.137 8.534z" class="K"/><g class="L"><ellipse transform="matrix(.9924 -.123 .123 .9924 -7.8345 19.2529)" cx="152.03" cy="73.085" rx="2.068" ry="2.03"/><ellipse transform="matrix(.9925 -.1226 .1226 .9925 -7.6952 19.6234)" cx="155.565" cy="72.324" rx="1.887" ry="1.851"/><ellipse transform="matrix(.9924 -.1227 .1227 .9924 -7.9746 19.5623)" cx="154.835" cy="74.525" rx="1.99" ry="1.952"/></g><path d="M51.304 69.966c-.402-.264-.791-.444-1.172-.589l.129-.003c3.26-.263 4.133 3.527 3.93 3.65.303.3.579-5.238-4.666-5.713-.601-.045-1.131.002-1.61.102-.087-.483-.24-.992-.505-1.534-2.389-4.693-7.428-2.379-7.037-2.21.039-.234 3.881-.832 4.849 2.293.165.37.262.726.312 1.069-.553-.528-1.305-.97-2.328-1.235-5.117-1.237-6.636 4.096-6.254 3.908-.152-.181 1.893-3.49 4.896-2.191 1.674.499 2.386 1.758 2.829 2.856-.363.65-.686 1.158-.611 1.494.048.258.267.382.574.389.121.282.316.44.573.389.097-.016.194-.072.294-.148 1.13-.326 3.19-1.727 5.439-.366 2.979 1.354 1.9 5.092 1.664 5.101.116.407 3.048-4.299-1.306-7.262z" class="J"/><path d="M42.567 77.334c-2.52 4.149-4.732 6.346-4.9 4.469-.197-1.873 1.946-3.66 3.549-5.638 1.521-2.092 2.562-4.883 3.798-5.215 1.229-.36.19 2.374-2.447 6.384z" class="K"/><g class="L"><ellipse transform="matrix(.828 .5608 -.5608 .828 47.0949 -12.3607)" cx="43.694" cy="70.578" rx="1.555" ry="1.525"/><ellipse transform="matrix(.828 .5607 -.5607 .828 48.2372 -13.4677)" cx="46.072" cy="71.896" rx="1.419" ry="1.392"/><ellipse transform="matrix(.8281 .5606 -.5606 .8281 48.4583 -12.4733)" cx="44.568" cy="72.78" rx="1.496" ry="1.468"/></g><path d="M79.833 47.266c-.475.259-.859.548-1.203.848l.064-.129c1.467-3.365 5.678-2.222 5.692-1.956.457-.14-4.876-3.346-8.122 1.592-.362.571-.598 1.12-.754 1.648-.523-.171-1.107-.289-1.784-.313-5.907-.121-6.286 6.088-5.913 5.792-.211-.163 1.232-4.281 4.838-3.584.451.034.855.126 1.222.258-.815.267-1.651.778-2.455 1.65-3.934 4.408.538 8.734.556 8.257-.26.054-2.451-3.72.424-6.004 1.38-1.392 3.002-1.431 4.324-1.286.451.705.782 1.29 1.154 1.396.281.09.52-.062.688-.362.345.031.604-.08.689-.361.035-.103.031-.229.008-.37.275-1.289-.019-4.07 2.52-5.575 2.916-2.229 6.043.817 5.927 1.056.465.096-2.639-5.297-7.875-2.557z" class="J"/><path d="M82.496 59.81c2.772 4.691 3.772 8.044 1.825 7.216-1.956-.796-2.589-3.864-3.698-6.496-1.263-2.613-3.474-5.12-3.147-6.519.295-1.407 2.449 1.068 5.02 5.799z" class="K"/><g class="L"><ellipse transform="matrix(.8851 -.4655 .4655 .8851 -16.8741 41.9013)" cx="76.409" cy="55.119" rx="1.746" ry="1.712"/><ellipse transform="matrix(.8852 -.4653 .4653 .8852 -15.8067 42.8821)" cx="78.972" cy="53.464" rx="1.593" ry="1.563"/><ellipse transform="matrix(.8851 -.4655 .4655 .8851 -16.7105 43.1686)" cx="79.052" cy="55.419" rx="1.679" ry="1.647"/></g><path d="M24.483 40.496c-.395-.353-.787-.61-1.178-.827l.141.017c3.582.235 3.923 4.489 3.684 4.591.279.374 1.465-5.594-4.152-6.947a6.27 6.27 0 0 0-1.766-.147c-.017-.538-.102-1.115-.303-1.746-1.844-5.476-7.684-3.77-7.286-3.524.079-.248 4.347-.283 4.897 3.265a4.43 4.43 0 0 1 .167 1.21c-.515-.663-1.261-1.262-2.329-1.713-5.359-2.161-7.859 3.385-7.415 3.243-.136-.222 2.612-3.486 5.665-1.598 1.736.811 2.31 2.29 2.615 3.554-.5.648-.93 1.147-.903 1.524.011.288.229.457.562.514.086.327.273.528.561.514.106-.001.221-.047.343-.115 1.278-.172 3.739-1.364 5.964.474 3.016 1.946 1.248 5.83.99 5.803.062.46 3.997-4.181-.257-8.092z" class="J"/><path d="M13.822 47.098c-3.398 4.103-6.152 6.132-6.034 4.067.084-2.063 2.697-3.661 4.753-5.554 1.987-2.026 3.562-4.891 4.956-5.053 1.393-.195-.172 2.608-3.675 6.54z" class="K"/><g class="L"><ellipse transform="matrix(.7376 .6752 -.6752 .7376 31.2022 -.4072)" cx="16.125" cy="39.943" rx="1.707" ry="1.675"/><ellipse transform="matrix(.7375 .6754 -.6754 .7375 33.0555 -1.5295)" cx="18.495" cy="41.754" rx="1.557" ry="1.528"/><ellipse transform="matrix(.7376 .6752 -.6752 .7376 33.0655 -.1476)" cx="16.723" cy="42.475" rx="1.642" ry="1.61"/></g><path d="M188.888 38.729a5.5 5.5 0 0 0-1.159-.441l.12-.016c3.042-.561 4.228 2.919 4.049 3.055.313.254.04-4.981-4.939-4.924-.568.016-1.063.11-1.506.25a5.44 5.44 0 0 0-.621-1.394c-2.698-4.184-7.215-1.523-6.832-1.402.016-.224 3.571-1.155 4.782 1.691a3.92 3.92 0 0 1 .396.975c-.57-.443-1.32-.787-2.309-.938-4.932-.671-5.848 4.49-5.506 4.277-.161-.156 1.443-3.464 4.393-2.532 1.623.309 2.414 1.424 2.937 2.414-.28.648-.532 1.155-.432 1.465.07.238.288.334.577.311.141.255.34.383.578.31.088-.023.174-.086.262-.168 1.03-.414 2.834-1.931 5.08-.866 2.932.987 2.277 4.605 2.055 4.637.15.373 2.455-4.337-1.925-6.704z" class="J"/><path d="M181.379 46.499c-1.97 4.146-3.841 6.424-4.179 4.674-.367-1.741 1.479-3.628 2.795-5.644 1.23-2.114 1.939-4.839 3.07-5.27 1.123-.457.408 2.216-1.686 6.24z" class="K"/><g class="L"><ellipse transform="matrix(.8807 .4736 -.4736 .8807 40.6395 -81.3176)" cx="181.788" cy="40.037" rx="1.47" ry="1.442"/><ellipse transform="matrix(.8809 .4734 -.4734 .8809 41.3686 -82.2804)" cx="184.152" cy="41.047" rx="1.342" ry="1.316"/><ellipse transform="matrix(.8809 .4733 -.4733 .8809 41.6577 -81.5181)" cx="182.823" cy="42.024" rx="1.415" ry="1.387"/></g><path d="M171.462 13.091c1.084-1.718 2.278-2.352 1.987-2.312-.274.037-2.038.73-3.05 2.065-.159.194-.283.401-.393.612.135-1.721.836-2.66.637-2.529-.176.115-1.164 1.173-1.422 2.426a2.57 2.57 0 0 0-.068.579 2.56 2.56 0 0 0-.51-.282c-1.168-.519-2.604-.331-2.8-.254-.222.085.95.061 2.428.954-.235-.035-.476-.054-.726-.038-1.675.046-3.266 1.079-3.454 1.28-.201.213 1.009-.39 3.036-.272-1.316.28-2.419 1.005-2.574 1.171-.217.23 1.212-.495 3.544-.23.589.067 1.121.172 1.582.282.005.014.008.035.013.048.07.233.133.212.222.011l.106.027c.02.353.07.657.133.86.123.403.219.054.477-.688.753.223 1.092.348.836.014-.129-.169-.347-.387-.623-.609l.041-.102c.215.045.269.006.12-.187-.009-.012-.023-.026-.032-.038.178-.439.402-.934.691-1.451 1.141-2.05 2.563-2.791 2.248-2.748-.224.028-1.457.502-2.449 1.411z" class="M"/><path d="M175.753 17.917c1.514 2.104.799 4.808-1.598 6.041s-5.012.241-5.843-2.214-.115-5.159 1.598-6.04 4.329.109 5.843 2.213z" class="N"/><path d="M172.095 19.768l1.15.29.824.188-.807-.256-1.185-.346-.089-.666-.129-.837.059.845.055.629-.498-.14-.697-.184-.101-.753-.128-.837.058.846.063.717-.998-.25-.129-.03-.061-.445-.129-.837.059.845.035.416-.6-.137.605.193.138 1.383.03.254-.77-.175.778.247.194 1.522.129.837-.059-.846-.14-1.475 1.112.323.151 1.16.129.837-.059-.845-.103-1.119.461.129.721.19.162 1.247.128.836-.058-.845-.112-1.207.96.24.826.188-.807-.256-.991-.291-.056-.528-.121-1.057zm-2.347.917l-.031-.298-.163-1.338.101.033 1.028.301.104 1.018.067.563-1.106-.279zm2.405.633l-.673-.189-.507-.133-.063-.61-.117-.971.648.182.543.144.111 1.1.058.477z" class="O"/><path d="M124.646 44.178c3.1-3.082 5.908-3.836 5.279-3.894-.592-.054-4.625.551-7.389 2.866-.426.33-.786.704-1.114 1.096 1.106-3.545 3.028-5.177 2.55-4.999-.426.157-3.006 1.898-4.148 4.403a5.73 5.73 0 0 0-.42 1.181c-.276-.303-.577-.59-.934-.835-2.201-1.651-5.301-1.945-5.75-1.88-.505.074 1.963.586 4.633 3.167a7.32 7.32 0 0 0-1.503-.428c-3.535-.708-7.365.692-7.858 1.023-.523.352 2.302-.331 6.499.889-2.897-.047-5.556.945-5.962 1.219-.566.379 2.778-.455 7.541 1.22a27.86 27.86 0 0 1 3.183 1.351c.003.033-.001.076.001.106.038.522.179.51.463.13l.209.107c-.127.75-.167 1.412-.135 1.868.065.903.434.22 1.328-1.215 1.475.83 2.125 1.255 1.748.431-.189-.417-.541-.979-1.012-1.576l.132-.194c.432.197.562.142.343-.335-.012-.028-.035-.064-.049-.095.585-.835 1.293-1.764 2.146-2.71 3.379-3.751 6.715-4.621 6.035-4.683-.486-.045-3.296.357-5.816 1.787z" class="M"/><path d="M131.325 56.359c2.163 5.14-.635 10.466-6.252 11.898s-10.625-1.902-11.188-7.45 2.236-10.872 6.252-11.896 9.024 2.311 11.188 7.448z" class="N"/><path d="M122.765 58.482l2.271 1.161 1.641.79-1.567-.925-2.319-1.295.134-1.438.132-1.819-.283 1.801-.188 1.345-.977-.531-1.373-.72.15-1.627.133-1.818-.284 1.801-.212 1.535-1.973-1.006-.254-.122.085-.964.132-1.817-.283 1.8-.127.888-1.191-.574 1.177.695-.374 2.966-.061.547-1.527-.735 1.512.891-.322 3.285-.133 1.817.283-1.801.417-3.16 2.177 1.212-.24 2.505-.132 1.817.284-1.801.32-2.395.904.492 1.42.746-.259 2.691-.132 1.816.283-1.801.346-2.585 1.898.965 1.641.792-1.568-.926-1.939-1.086.14-1.133.238-2.279zm-5.361.795l.078-.64.299-2.883.198.115 2.01 1.125-.271 2.185-.129 1.215-2.185-1.117zm4.741 2.484l-1.321-.719-.996-.524.16-1.308.221-2.094 1.271.692 1.07.563-.295 2.358-.11 1.032z" class="O"/><path d="M86.939 74.29c3.067-3.307 5.931-4.202 5.28-4.235-.611-.03-4.744.762-7.498 3.264-.425.358-.78.76-1.103 1.177.993-3.701 2.905-5.465 2.419-5.261-.432.18-3.02 2.084-4.092 4.714-.184.406-.298.819-.383 1.234-.299-.3-.621-.583-.998-.822-2.34-1.61-5.547-1.783-6.008-1.697-.518.097 2.049.522 4.909 3.072-.498-.172-1.015-.313-1.567-.379-3.674-.581-7.564 1.022-8.06 1.384-.526.386 2.36-.437 6.737.646-2.988.072-5.688 1.207-6.095 1.505-.569.414 2.845-.585 7.825.941a28.8 28.8 0 0 1 3.338 1.261c.004.033.002.079.006.109.061.537.205.519.482.115l.221.102c-.101.778-.113 1.463-.061 1.933.104.928.455.206 1.318-1.31 1.554.794 2.242 1.205 1.82.372-.213-.422-.6-.987-1.109-1.583l.128-.206c.452.186.583.122.34-.36l-.056-.095c.568-.887 1.26-1.874 2.1-2.885 3.327-4.009 6.73-5.046 6.026-5.08-.5-.027-3.379.505-5.919 2.084z" class="M"/><path d="M94.337 86.57c2.445 5.208-.218 10.817-5.949 12.529s-11.033-1.517-11.846-7.213 1.852-11.305 5.948-12.528 9.402 2.006 11.847 7.212z" class="N"/><path d="M85.599 89.117l2.393 1.102 1.724.747-1.655-.888-2.445-1.238.077-1.49.06-1.88-.217 1.869-.136 1.394-1.03-.507-1.445-.685.087-1.685.06-1.88-.217 1.868-.153 1.591-2.075-.953-.269-.116.048-.996.061-1.88-.217 1.868-.094.921-1.254-.543 1.243.667-.262 3.074-.038.566-1.605-.694 1.595.855-.196 3.399-.06 1.88.217-1.868.298-3.275 2.295 1.158-.143 2.592-.061 1.88.217-1.868.231-2.482.952.47 1.496.709-.154 2.786-.061 1.878.217-1.868.248-2.679 1.998.916 1.725.747-1.656-.89-2.044-1.038.096-1.174.149-2.36zm-5.494 1.044l.054-.662.188-2.986.209.112 2.119 1.076-.188 2.263-.083 1.258-2.299-1.061zm4.992 2.362l-1.393-.686-1.049-.499.11-1.354.142-2.169 1.339.661 1.127.535-.205 2.444-.071 1.068z" class="O"/><path d="M152.167 20.408c2.676-.514 4.391.074 4.086-.175-.287-.234-2.584-1.325-4.818-1.09-.336.023-.652.091-.958.179 1.807-1.448 3.368-1.624 3.059-1.698-.274-.067-2.216-.064-3.679.833a3.5 3.5 0 0 0-.627.464 3.55 3.55 0 0 0-.192-.757c-.563-1.621-2.064-2.851-2.319-2.974-.287-.138.811.986 1.293 3.251a4.57 4.57 0 0 0-.629-.745c-1.581-1.597-4.05-2.206-4.42-2.207-.394 0 1.307.63 3.052 2.722-1.481-1.033-3.202-1.445-3.507-1.445-.426-.001 1.594.732 3.475 3.256.475.637.861 1.254 1.176 1.807-.01.018-.027.04-.037.056-.162.283-.085.325.194.228l.071.128c-.327.343-.578.672-.721.919-.28.49.148.264 1.11-.167.474.942.661 1.389.755.832.047-.281.061-.695.023-1.167l.137-.055c.154.252.24.269.295-.054.003-.019.004-.046.007-.066.593-.228 1.282-.462 2.054-.654 3.054-.764 5.082-.052 4.751-.32-.236-.192-1.83-.962-3.631-1.101z" class="M"/><path d="M151.381 29.034c-.671 3.411-3.973 5.191-7.376 3.977s-4.832-4.683-3.191-7.748 4.941-4.844 7.375-3.977 3.862 4.338 3.192 7.748z" class="N"/><path d="M146.214 27.152l.771 1.391.573.98-.489-1.024-.748-1.477.57-.698.701-.894-.773.833-.564.63-.321-.615-.459-.85.644-.789.701-.894-.773.833-.643.72-.671-1.207-.089-.152.379-.468.701-.895-.773.833-.373.415-.417-.712.366.769-1.227 1.404-.221.262-.533-.912.471.987-1.311 1.585-.701.895.773-.833 1.315-1.489.704 1.385-.996 1.211-.701.894.773-.833 1-1.127.296.57.476.88-1.071 1.301-.7.894.773-.833 1.078-1.216.646 1.16.572.98-.488-1.024-.625-1.236.466-.538.918-1.096zm-3.049-1.455l.264-.304 1.158-1.387.062.129.648 1.281-.901 1.035-.49.583-.741-1.337zm1.587 2.934l-.433-.832-.333-.618.538-.621.844-1.006.416.801.357.663-.973 1.118-.416.495z" class="O"/><path d="M57.808 19.829c4.373-.325 7.006.932 6.563.478-.415-.427-3.884-2.598-7.501-2.637-.54-.026-1.059.024-1.564.108 3.157-1.979 5.687-1.969 5.206-2.146-.427-.157-3.53-.514-6.036.649-.399.168-.754.387-1.089.626-.015-.411-.056-.826-.167-1.246-.601-2.695-2.771-4.941-3.156-5.184-.433-.274 1.113 1.727 1.464 5.437-.241-.452-.517-.894-.866-1.307-2.232-2.847-6.064-4.278-6.656-4.349-.629-.074 1.971 1.25 4.373 4.918-2.178-1.927-4.852-2.905-5.339-2.962-.68-.081 2.414 1.466 4.952 5.851a28.27 28.27 0 0 1 1.543 3.106l-.068.083c-.313.422-.197.505.268.4l.089.218c-.587.488-1.049.968-1.321 1.336-.541.731.187.449 1.805-.06.582 1.594.801 2.342 1.052 1.469.126-.441.226-1.1.257-1.862l.228-.062c.199.432.335.474.479-.031.01-.029.016-.073.024-.104a28.31 28.31 0 0 1 3.405-.665c5.023-.654 8.133.86 7.654.37-.342-.351-2.746-1.878-5.599-2.434z" class="M"/><path d="M54.948 33.473c-1.705 5.328-7.314 7.562-12.529 4.988s-6.855-8.384-3.665-12.979 8.801-6.826 12.529-4.986 5.368 7.65 3.665 12.977z" class="N"/><path d="M47.038 29.504l.975 2.367.734 1.673-.592-1.728-.922-2.5 1.041-1.011 1.286-1.299-1.391 1.187-1.02.903-.398-1.043-.577-1.444 1.178-1.142 1.287-1.299-1.391 1.188-1.163 1.031-.848-2.053-.114-.26.693-.678 1.287-1.299-1.391 1.188-.676.594-.533-1.217.443 1.299-2.221 2.016-.402.378-.686-1.558.57 1.666-2.389 2.292-1.287 1.299 1.391-1.187 2.381-2.136.867 2.345-1.816 1.751-1.287 1.299 1.391-1.188 1.808-1.616.367.965.597 1.495-1.954 1.881-1.286 1.299 1.391-1.188 1.951-1.744.816 1.974.734 1.674-.592-1.729-.77-2.092.846-.773 1.672-1.58zm-4.603-2.893l.477-.437 2.109-2.002.075.217.798 2.169-1.633 1.488-.891.841-.935-2.276zm1.992 4.987l-.537-1.411-.419-1.05.976-.892 1.536-1.452.517 1.358.449 1.126-1.765 1.606-.757.715z" class="O"/></svg>