<svg xmlns="http://www.w3.org/2000/svg" width="198.333" height="131" xmlns:v="https://vecta.io/nano"><path d="M99.165 33.845c39.268-4 25.693-32.345 25.693-32.345h4.213c14.492 27 39.822 24.719 39.822 24.719s12.242 15.268 0 47.989 26.223 43.624 26.689 45.62-8.445 10.522-24.807 8.653-13.297 2.025-35.938-2.312-23.063 5.38-30.309 1.874c0 0-5.439-1.308-6.814-1.401s-3.914 1.405-3.914 1.405c-7.246 3.506-7.666-6.205-30.309-1.868s-19.576.453-35.938 2.322-25.273-6.636-24.807-8.632 38.93-12.857 26.688-45.579 0-48.072 0-48.072S54.769 28.5 69.259 1.5h4.215S59.899 29.845 99.165 33.845h0z" fill="#f93862" stroke="#931923" stroke-miterlimit="10"/></svg>