<svg xmlns="http://www.w3.org/2000/svg" width="198.333" height="127.667" xmlns:v="https://vecta.io/nano"><path d="M2.297 66.848s18.982-1.724 25.827 16.514L50 23.008S50.961 8.5 35.855 12.5-.894 48.112 2.297 66.848zm193.398 0s-18.982-1.724-25.827 16.514l-21.876-60.354S147.031 8.5 162.137 12.5s36.749 35.612 33.558 54.348z" fill="#070711" stroke="#fff" stroke-width=".5" stroke-miterlimit="10"/><path d="M80.127 3.329c-1.349 25.585 4.868 52.107 18.729 77.162 13.882-25.057 20.112-51.587 18.765-77.178-5.193-.33-10.301-.477-15.218-.513-7.114-.052-14.636.038-22.276.529z" fill="#fff"/><g fill="#f96277"><path d="M98.694 16.684S86.05 41.992 86.275 51.147C86.479 59.41 99 81.667 99 81.667s12.395-22.422 12.515-30.713c.131-9.146-12.821-34.27-12.821-34.27zm8.256-7.817l-.09.13H90.53l-.091-.12 8.181-6.09z"/><path d="M106.86 8.997l-8.171 7.87-8.159-7.87z"/></g><g stroke-width=".5" stroke-miterlimit="10"><path d="M79.95 16.677l10.489-7.8 8.181-6.09 19.02 13.89" fill="none" stroke="#070711"/><g stroke="#fff"><path d="M166.718 27.577c-1.776-5.318-3.929-10.51-6.434-15.526-16.001-6.519-33.9-8.578-50.357-9.104 2.535.083 5.104.201 7.694.366 1.348 25.591-4.883 52.121-18.765 77.178C84.995 55.437 78.778 28.914 80.127 3.329l5.287-.275c-14.713.618-30.121 2.525-44.108 7.68-9.243 3.406-12.03 22.923-13.773 31.727-2.54 12.819-3.059 26.063-1.545 39.045 1.907 16.355 8.659 26.749 24.252 34.033 24.637 11.509 53.83 12.539 79.942 6.168 14.438-3.523 35.686-11.288 39.785-27.673 5.4-21.596 3.763-45.468-3.249-66.457z" fill="#070711"/><path d="M80.127 3.329S72.968 14.1 72.606 24.587l8.559 6.147s-8.075 14.579.001 35.433l17.69 14.324m18.48-77.162s7.159 10.771 7.521 21.258l-8.559 6.147s8.075 14.579-.001 35.433l-17.44 14.324.302 45.104" fill="none"/></g></g></svg>