<svg xmlns="http://www.w3.org/2000/svg" width="100" height="100" xmlns:v="https://vecta.io/nano"><path d="M97 83.75C97 91.62 90.62 98 82.75 98h-66.5C8.38 98 2 91.62 2 83.75v-66.5C2 9.38 8.38 3 16.25 3h66.5C90.62 3 97 9.38 97 17.25v66.5z" fill="#1f1f1f"/><g fill="#eee"><path d="M82.75 99h-66.5A15.27 15.27 0 0 1 1 83.75v-66.5A15.27 15.27 0 0 1 16.25 2h66.5A15.27 15.27 0 0 1 98 17.25v66.5A15.27 15.27 0 0 1 82.75 99zM16.25 4A13.27 13.27 0 0 0 3 17.25v66.5A13.27 13.27 0 0 0 16.25 97h66.5A13.27 13.27 0 0 0 96 83.75v-66.5A13.27 13.27 0 0 0 82.75 4h-66.5z"/><circle cx="50" cy="50" r="9"/><circle cx="77" cy="77" r="9"/><circle cx="23" cy="77" r="9"/><circle cx="23" cy="23" r="9"/><circle cx="77" cy="23" r="9"/></g></svg>