<svg xmlns="http://www.w3.org/2000/svg" width="113.338" height="107.952" xmlns:v="https://vecta.io/nano"><path d="M56.669 7.712c-30.038 0-54.39 20.712-54.39 46.264s24.352 46.264 54.39 46.264 54.389-20.716 54.389-46.264S86.708 7.712 56.669 7.712zm.001 84.641c-3.072-.796-7.333-22.632-7.486-38.38.152-15.741 4.414-37.587 7.486-38.373 3.073.793 7.333 22.632 7.484 38.373-.152 15.748-4.418 37.584-7.484 38.38z" fill="#1f1f1f"/><path d="M56.669 101.74c-30.818 0-55.89-21.427-55.89-47.764S25.852 6.212 56.669 6.212s55.889 21.427 55.889 47.764-25.072 47.764-55.889 47.764zm0-92.528c-29.164 0-52.89 20.081-52.89 44.764S27.506 98.74 56.669 98.74s52.889-20.081 52.889-44.764S85.833 9.212 56.669 9.212zm.001 84.69l-.376-.098c-4.845-1.255-8.482-26.582-8.61-39.817.128-13.271 3.767-38.601 8.614-39.841l.374-.096.374.096c4.845 1.25 8.481 26.575 8.609 39.811-.128 13.263-3.763 38.589-8.607 39.846l-.378.099zm-.001-76.241c-2.295 3.906-5.842 21.494-5.985 36.326.144 14.805 3.688 32.388 5.985 36.301 2.297-3.917 5.842-21.503 5.985-36.33-.143-14.806-3.689-32.392-5.985-36.297z" fill="#eee"/></svg>