<svg xmlns="http://www.w3.org/2000/svg" width="113.338" height="107.952" xmlns:v="https://vecta.io/nano"><path d="M109.512 88.794a375.94 375.94 0 0 1-20.635 2.35c.645-27.92 7.753-55.435 11.548-83.16-29.056-3.671-58.456-3.671-87.512 0 3.794 27.726 10.903 55.24 11.549 83.16a376.09 376.09 0 0 1-20.636-2.35L2.39 98.879c36.004 5.124 72.553 5.124 108.557 0l-1.435-10.085z" fill="#1f1f1f"/><path d="M56.669 104.722c-18.93 0-37.807-1.46-56.54-4.145L1.9 88.138c.36-2.532 1.791-1.375 4.211-1.045 5.414.739 10.845 1.357 16.286 1.858-.993-27.894-7.998-55.132-11.739-82.699a362.89 362.89 0 0 1 92.023 0c-3.749 27.564-10.746 54.806-11.738 82.699a377.33 377.33 0 0 0 14.273-1.589c1.495-.195 5.853-1.828 6.128.11l1.865 13.105c-18.733 2.686-37.61 4.145-56.54 4.145zM4.654 97.175a383.92 383.92 0 0 0 104.031 0l-.509-3.571c-.341-2.393.338-2.64-2.422-2.279-6.293.823-12.604 1.463-18.928 2.002.586-28.281 7.359-55.727 11.337-83.608-27.533-3.313-55.455-3.313-82.988 0 3.975 27.884 10.744 55.326 11.338 83.608-5.63-.48-11.252-1.036-16.859-1.738-2.441-.304-3.979-1.589-4.355 1.049l-.645 4.537z" fill="#eee"/></svg>