<svg xmlns="http://www.w3.org/2000/svg" width="113.338" height="107.952" xmlns:v="https://vecta.io/nano"><path d="M110.688 56.143c-1.344-5.641-3.38-10.804-5.951-15.467 1.668-1.536 2.74-4.182 3.146-8.157 1.207-13.637-1.377-27.681-5.725-30.1-4.1-2.82-17.829 1.107-29.509 8.247-1.313.828-2.391 1.656-3.271 2.488a50.78 50.78 0 0 0-12.71-1.495c-3.883-.044-7.777.383-11.606 1.239-.828-.746-1.818-1.489-2.997-2.232C30.386 3.526 16.658-.401 12.559 2.419c-4.348 2.418-6.931 16.463-5.726 30.1.332 3.253 1.113 5.609 2.298 7.204-2.825 4.908-5.046 10.394-6.481 16.42-6.774 28.16 17.451 50.27 54.019 49.914 36.569.356 60.793-21.754 54.019-49.914z" fill="#1f1f1f"/><path d="M57.542 107.952l-.887-.2-.856-.093c-20.674 0-38.13-7.153-47.891-19.541-7.258-9.211-9.58-20.396-6.716-32.301 1.351-5.667 3.429-11.062 6.182-16.02-1.06-1.781-1.728-4.127-2.033-7.119C4.211 19.902 6.35 4.269 11.767 1.147 12.906.388 14.525.001 16.582.001c6.526 0 17.082 3.771 26.267 9.386a24.98 24.98 0 0 1 2.628 1.887c3.55-.742 7.128-1.118 10.647-1.118l.562.003.534-.003c3.894 0 7.84.456 11.74 1.355.84-.724 1.809-1.434 2.89-2.115C81.052 3.772 91.607 0 98.135 0c2.057 0 3.676.385 4.815 1.144 5.417 3.123 7.556 18.753 6.427 31.508-.376 3.686-1.298 6.399-2.809 8.259 2.458 4.653 4.333 9.654 5.579 14.885 2.864 11.903.542 23.261-6.717 32.472-9.759 12.384-27.215 19.684-47.888 19.684zm-.888-3.395l.885.004c19.75 0 36.347-6.687 45.534-18.346 6.669-8.463 8.797-18.74 6.156-29.721-1.27-5.332-3.223-10.409-5.806-15.094l-.568-1.031.866-.797c1.417-1.304 2.314-3.728 2.669-7.206 1.228-13.881-1.658-26.799-4.961-28.636l-.121-.075C100.694 3.233 99.567 3 98.135 3c-5.928 0-16.086 3.679-24.703 8.946-1.172.739-2.195 1.516-3.022 2.298l-.595.563-.794-.196c-3.919-.965-7.89-1.454-11.801-1.454l-.534.003-.562-.003c-3.544 0-7.155.405-10.734 1.206l-.756.169-.575-.519c-.778-.701-1.718-1.4-2.792-2.077C32.667 6.679 22.509 3 16.582 3c-1.836 0-2.739.356-3.173.655l-.121.075c-3.303 1.837-6.189 14.755-4.96 28.656.293 2.87.969 5.044 2.008 6.442l.587.79-.491.853c-2.837 4.93-4.964 10.319-6.322 16.02-2.643 10.982-.514 21.259 6.154 29.721 9.188 11.661 25.785 18.349 45.534 18.349l.856-.004z" fill="#eee"/></svg>