<svg xmlns="http://www.w3.org/2000/svg" width="144.547" height="152.371" xmlns:v="https://vecta.io/nano"><path d="M142.848 85.866c-1.84-19.673-11.309-38.408-24.996-51.81.968-1.371 1.644-3.189 1.986-5.479 1.584-10.664-.245-22.599-4.99-25.24-4.627-2.857-15.946 1.351-24.487 7.924-1.898 1.458-3.179 2.984-3.894 4.549-4.618-1.184-9.373-1.8-14.195-1.79-4.824-.01-9.578.606-14.196 1.79-.723-1.565-2.005-3.091-3.903-4.549C45.632 4.688 34.323.48 29.695 3.337c-4.754 2.642-6.574 14.577-4.999 25.24.342 2.299 1.018 4.119 1.996 5.488C13.008 47.458 3.538 66.192 1.699 85.866c-3.562 37.84 27.96 64.049 70.575 64.079 42.614-.03 74.134-26.239 70.574-64.079zM52.805 63.845c-3.551 0-6.417-3.826-6.417-8.561 0-4.726 2.867-8.55 6.417-8.55 3.542 0 6.418 3.825 6.418 8.55 0 4.735-2.877 8.561-6.418 8.561zm19.879 8.667c-.137-.01-.245-.03-.304-.049a3.07 3.07 0 0 0 .304.039v.01zm6.486-4.95c-.733 1.888-2.963 4.128-4.822 4.784-.02.01-.049.01-.069.02-.734.166-2.005.078-2.005.078-2.729-.459-4.765-2.856-5.547-4.881-.91-2.318 1.781-2.613 6.222-2.603 4.441-.011 7.131.284 6.221 2.602zm14.714-3.717c-3.551 0-6.418-3.826-6.418-8.561 0-4.726 2.867-8.55 6.418-8.55 3.542 0 6.417 3.825 6.417 8.55 0 4.735-2.876 8.561-6.417 8.561z" fill="#2d2d43" stroke="#fff" stroke-width="2" stroke-miterlimit="10"/></svg>