<svg xmlns="http://www.w3.org/2000/svg" width="144.547" height="153.371" xmlns:v="https://vecta.io/nano"><path d="M142.557 86.326c-1.833-19.593-11.263-38.25-24.893-51.597.965-1.364 1.636-3.176 1.978-5.456 1.578-10.619-.244-22.505-4.969-25.136-4.608-2.845-15.88 1.345-24.385 7.892-1.89 1.452-3.166 2.972-3.878 4.53-4.598-1.179-9.333-1.792-14.136-1.783-4.803-.01-9.538.604-14.136 1.783-.721-1.558-1.998-3.078-3.888-4.53-8.506-6.547-19.768-10.737-24.376-7.892-4.735 2.63-6.547 14.517-4.979 25.136.34 2.29 1.013 4.102 1.987 5.466C13.253 48.076 3.822 66.733 1.99 86.326c-3.546 37.684 27.844 63.785 70.283 63.814 42.44-.03 73.829-26.13 70.284-63.814zM52.885 64.395c-3.537 0-6.391-3.81-6.391-8.525 0-4.706 2.854-8.515 6.391-8.515 3.527 0 6.392 3.809 6.392 8.515 0 4.715-2.865 8.525-6.392 8.525zm19.798 8.632c-.137-.01-.244-.029-.303-.049.098.02.196.029.303.039v.01zm6.459-4.929c-.73 1.88-2.952 4.111-4.803 4.764-.02.01-.048.01-.068.02-.731.166-1.997.078-1.997.078-2.718-.458-4.745-2.845-5.524-4.861-.906-2.31 1.773-2.602 6.196-2.592 4.423-.011 7.102.281 6.196 2.591zm14.652-3.703c-3.536 0-6.392-3.81-6.392-8.525 0-4.706 2.855-8.515 6.392-8.515 3.527 0 6.392 3.809 6.392 8.515.001 4.715-2.864 8.525-6.392 8.525z" fill="#fff" stroke="#2d2d43" stroke-width="2" stroke-miterlimit="10"/></svg>