<svg xmlns="http://www.w3.org/2000/svg" width="113.338" height="83.75" xmlns:v="https://vecta.io/nano"><path d="M56.338 1.977v24.318l-5.614-.137c-27.25 0-48.53 26.412-48.53 53.663-.001.048.449 2.179.449 2.179H58.12h43.199 10.02V1.977c-18.001 2.919-35.001 2.919-55.001 0z" fill="#1f1f1f"/><path d="M113.338 83H1.434l-.257-1.181-.443-2.248c0-13.648 5.263-27.467 14.439-37.916 9.628-10.961 22.451-16.998 35.801-16.998 1.673 0 2.364.023 4.364.074V.242l1.548.25c10.021 1.463 19.106 2.174 27.948 2.174 8.836 0 17.633-.71 26.637-2.17l1.867-.282V83zM3.853 80h106.485V3.731c-17 2.611-33 2.604-52-.026v24.158l-1.736-.07c-2.101-.094-3.496-.136-5.713-.136-25.033 0-47.041 24.177-47.113 51.775.026.129.028.338.077.568z" fill="#eee"/></svg>