<svg xmlns="http://www.w3.org/2000/svg" width="106.963" height="81.085" xmlns:v="https://vecta.io/nano"><path d="M85.963 4.834L71.395 2.448A17.19 17.19 0 0 1 54.33 16.882c-8.744 0-15.869-6.297-17.172-14.515L21.73 4.818c0 .006.026.011.026.017L1.839 16.776c.656 6.354 3.189 17.849 12.693 23.309l9.972-5.973c.384 13.063-.349 26.147-2.185 39.117 9.481 4.053 34.501 12.052 63.868-.08a230.79 230.79 0 0 1-2.171-39.037l9.345 5.601c9.343-5.816 11.209-17.608 11.738-23.646L85.963 4.834z" fill="#1f1f1f"/><path d="M38.317.651l.31 1.481c1.217 7.678 7.879 13.25 15.79 13.25 7.853 0 14.478-5.542 15.729-13.176l.25-1.472 1.479.233 7.167 1.146 7.655 1.224 20.229 11.923s-3.093 19.702-12.771 25.727l-.778.484-7.921-4.748c-.218 12.058.527 24.228 2.219 36.216l.162 1.152s-22.565 6.995-33.673 6.995c-15.032 0-33.489-6.93-33.489-6.93l.161-1.138a230.04 230.04 0 0 0 2.232-36.296l-9.278 4.664C3.699 35.588 1.041 23.575.354 16.93l-.247-.95L19.963 3.991 38.317.651zM23.965 72.289c5.777 2.349 16.58 5.797 30.198 5.797 10.336 0 20.55-1.98 30.379-5.889-1.717-12.632-2.398-25.454-2.024-38.129l.075-2.559 10.732 6.433c7.543-5.222 9.786-15.02 10.438-21.073L85.906 6.249l-7.34-1.174-5.741-.92c-2.05 8.328-9.551 14.228-18.371 14.228-8.883 0-16.404-5.933-18.423-14.308L22.336 6.246l-18.89 11.32c.751 6.024 3.199 15.742 11.094 20.768l11.39-6.825.075 2.558c.374 12.711-.313 25.564-2.04 38.222z" fill="#eee"/></svg>